<svg width="2064" height="2128" viewBox="0 0 2064 2128" fill="none" xmlns="http://www.w3.org/2000/svg">
<path fill-rule="evenodd" clip-rule="evenodd" d="M1261.24 209.012C1205.95 226.732 1167.37 303.229 1182.77 364.582C1188.07 385.683 1187.91 385.757 1137.81 385.757C1093.09 385.757 1084.93 388.374 1063.79 409.516C1048.05 425.261 1040.04 441.534 1040.04 457.758C1040.04 519.095 1074.31 545.22 1145.78 538.352C1168.07 536.206 1186.28 534.832 1186.22 535.295C1186.17 535.759 1180.7 556.25 1174.08 580.839C1156.45 646.257 1149.39 774.475 1161.4 810.874C1175.58 853.816 1204.34 873.463 1253.05 873.463C1286.35 873.463 1297.17 869.512 1316.31 850.362C1354.62 812.044 1361.1 770.662 1345.77 662.123C1338.52 610.711 1330.53 561.217 1328.04 552.129C1323.93 537.157 1326.59 535.905 1356.57 538.766C1401.89 543.091 1427.98 535.214 1451.13 510.235C1474.02 485.525 1477.5 439.648 1458.54 412.572C1441.68 388.504 1395.66 374.856 1352.96 381.261C1319.82 386.236 1317.94 385.496 1322.2 369.207C1327.19 350.105 1345.48 340.546 1391.28 333.117C1460.07 321.956 1466.93 237.746 1401.29 210.304C1369.72 197.12 1300.34 196.478 1261.24 209.012ZM1804.39 229.284C1743.48 260.603 1695.55 304.627 1702.62 322.761C1709.27 339.831 1765.67 342.009 1840.89 328.102C1933.35 311.007 1954.86 283.485 1917.17 230.536C1895.28 199.802 1862.43 199.437 1804.39 229.284ZM682.464 350.219C579.182 370.101 512.836 419.555 512.088 477.201C511.438 528.102 564.376 544.928 646.634 519.965C710.006 500.733 751.045 503.83 780.285 530.036C794.409 542.692 808.111 565.24 811.874 582.001L818.513 611.613L785.031 596.405C742.187 576.945 638.271 575.312 594.956 593.422C533.575 619.067 501.353 666.505 501.353 731.215C501.353 825.318 562.059 875.479 675.053 874.739C739.814 874.308 787.924 858.368 811.995 829.35C826.193 812.239 836.871 813.19 836.871 831.561C836.871 856.856 863.405 873.463 903.835 873.463C935.245 873.463 944.29 869.642 961.624 849.037C988.32 817.303 994.708 771.41 988.694 654.637C979.836 482.631 945.005 408.646 854.019 368.557C818.562 352.942 721.976 342.619 682.464 350.219ZM1703.37 377.612C1645.83 400.095 1604.29 431.536 1576.29 473.828C1507.09 578.303 1511.78 733.751 1586.35 808.346C1632.93 854.93 1682.56 869.398 1795.82 869.398C1909.98 869.398 1957.34 857.125 2000.08 816.458C2026.71 791.113 2031.49 781.424 2031.49 752.796C2031.49 687.378 1987.91 671.382 1896.65 703.294C1834.02 725.192 1733.44 723.152 1707.26 699.449C1675.65 670.845 1685.53 666.147 1777.53 666.074C1853.44 666.017 1869.69 663.497 1901.47 646.858C1949.5 621.709 1965.05 607.354 1983.59 571.004C2020.86 497.994 1991.07 409.963 1918.57 378.766C1864.95 355.698 1760.91 355.137 1703.37 377.612ZM173.181 384.545C59.0584 423.993 -0.380125 517.681 0.00182925 657.506C0.400037 803.713 75.1411 873.463 231.433 873.463C352.293 873.463 418.16 835.389 428.319 759.673C432 732.215 429.237 724.598 407.799 703.156C380.688 676.039 344.589 671.292 280.194 686.387C240.056 695.791 190.329 684.021 178.748 662.383C169.5 645.102 167.842 605.306 175.53 585.269C186.647 556.291 224.745 546.61 304.224 552.568C411.464 560.615 438.664 545.041 438.664 475.6C438.664 437.014 414.536 405.045 370.229 384.911C326.329 364.972 230.336 364.793 173.181 384.545ZM1834.64 479.697C1860.05 497.498 1858.63 535.482 1831.62 560.526C1794.65 594.796 1706.26 594.771 1693.1 560.494C1684.09 536.994 1706.9 501.018 1741.76 483.761C1782.09 463.798 1810.2 462.562 1834.64 479.697ZM785.389 670.764C828.834 687.281 832.792 719.965 794.206 743.497C743.536 774.401 666.211 757.641 666.211 715.755C666.211 673.633 729.802 649.622 785.389 670.764ZM1042.74 1101.61C984.891 1131.45 940.681 1170.78 944.184 1189.26C949.011 1214.68 1088.76 1208.66 1150.85 1180.36C1176.34 1168.74 1182.68 1141.45 1166.96 1111.05C1144.9 1068.36 1112.03 1065.86 1042.74 1101.61ZM747.478 1098.17C626.943 1143.24 569.885 1239.24 663.627 1239.24C683.943 1239.24 698.905 1231 726.373 1204.68L762.431 1170.12L789.533 1199.96C821.959 1235.67 855.79 1246.52 884.266 1230.33C916.765 1211.86 924.168 1193.84 909.784 1168.19C889.053 1131.25 782.252 1085.17 747.478 1098.17ZM56.978 1140.18C19.7497 1177.42 12.7282 1230.75 12.3463 1479.03C12.0862 1648.8 14.573 1704.57 23.3173 1725.3C34.4833 1751.77 67.819 1775.72 93.4993 1775.72C112.378 1775.72 154.23 1731.33 154.23 1711.32C154.23 1688.69 165.819 1689.93 176.66 1713.72C181.487 1724.32 202.502 1741.26 223.364 1751.36C253.595 1766 270.011 1768.82 304.362 1765.27C405.304 1754.85 463.67 1688.24 478.436 1566.62C489.992 1471.37 478.257 1394.28 444.58 1344.3C390.806 1264.48 273.327 1248.92 209.134 1313.13C196.131 1326.14 184.429 1336.78 183.137 1336.78C181.853 1336.78 183.803 1321.24 187.476 1302.24C203.543 1219.16 189.987 1144.59 155.449 1126.09C124.259 1109.4 81.6669 1115.5 56.978 1140.18ZM1377.3 1243.97C1372.83 1245.11 1355.13 1248.39 1337.98 1251.27C1316.02 1254.95 1296.17 1267.12 1270.93 1292.37C1236.69 1326.62 1235.08 1327.31 1235.08 1307.75C1235.08 1279.51 1201 1247.37 1171.06 1247.37C1137.25 1247.37 1100.88 1280.97 1085.13 1326.74C1069.63 1371.82 1051.43 1625.55 1059.73 1680.93C1073.11 1770.13 1177.37 1796.13 1221.03 1721.14C1233.03 1700.52 1237.15 1672.24 1240.56 1587.03C1243.87 1504.54 1248.56 1471.17 1260.42 1445.74C1286.84 1389.1 1338.48 1381.6 1357.51 1431.64C1362.21 1444.02 1363.32 1505.12 1360.25 1583.55C1355.3 1710.15 1355.74 1715.4 1372.53 1732.95C1396.39 1757.88 1425.19 1763.49 1460.94 1750.2C1504.72 1733.91 1525.13 1687.97 1536.25 1580.64C1556.1 1388.98 1511.8 1270.33 1412.02 1247.89C1397.39 1244.6 1381.77 1242.84 1377.3 1243.97ZM1902.88 1258.05C1893.16 1268.4 1885.21 1284.79 1885.21 1294.47C1885.21 1311.37 1883.81 1311.07 1849.6 1286.96C1786.33 1242.35 1702.83 1244.89 1649.53 1293.05C1601.04 1336.86 1588.59 1379.07 1588.59 1499.58C1588.59 1592.84 1590.34 1604.81 1609.35 1641.75C1621.8 1665.95 1643.83 1691.74 1664.39 1706.2C1694.24 1727.18 1705.76 1730.28 1753.34 1730.17C1814.55 1730.02 1835.02 1721.8 1879.12 1679.63L1909.59 1650.49V1673.27C1909.59 1707.51 1886.81 1748.71 1862.3 1758.8C1837.18 1769.14 1804.27 1771.03 1702.75 1767.99C1636.01 1765.99 1628.8 1767.3 1615.39 1783.86C1593.9 1810.4 1595.86 1865.82 1619.06 1887.56C1656.98 1923.09 1738.04 1936.6 1828.8 1922.51C1901.16 1911.28 1953.4 1889.19 1989.54 1854.56C2046.93 1799.54 2064 1733.76 2064 1567.54C2064 1332.96 2029.72 1239.24 1943.92 1239.24C1930 1239.24 1913.4 1246.85 1902.88 1258.05ZM654.021 1282.75C601.466 1307.29 558.963 1355.06 536.395 1414.97C521.418 1454.74 518.915 1475.06 521.54 1535.93C524.197 1597.74 528.334 1615.77 548.203 1652.17C600.978 1748.85 722.61 1790.76 845.551 1754.62C914.611 1734.31 962.68 1693.66 993.594 1629.41C1007.81 1599.87 1011.24 1577.86 1011.4 1515.03C1011.58 1444.3 1009.37 1432.89 987.069 1389.28C959.869 1336.08 905.005 1288.26 853.433 1272.81C798.611 1256.38 699.985 1261.29 654.021 1282.75ZM1871.29 1401.23C1895.31 1429.79 1904.97 1484.14 1894.39 1531.22C1880.9 1591.29 1841.27 1616.34 1796.43 1593.15C1765.63 1577.21 1752.48 1536.56 1756.69 1470.36C1759.27 1429.89 1764.21 1414.1 1779.32 1398.01C1806.82 1368.74 1845.08 1370.08 1871.29 1401.23ZM266.134 1410.51C299.064 1421.99 316.764 1460.59 316.747 1520.9C316.739 1578.97 297.186 1622.09 265.972 1632.92C210.8 1652.06 170.483 1603.61 170.483 1518.15C170.483 1444.76 182.657 1424.55 240.381 1402.13C240.828 1401.96 252.417 1405.72 266.134 1410.51ZM823.633 1426.43C849.598 1457.3 857.968 1499.89 845.957 1539.99C832.718 1584.19 812.857 1604.81 778.172 1610.36C751.175 1614.69 744.715 1612.01 718.335 1585.63C688.998 1556.28 688.795 1555.6 692.029 1498.27C694.914 1447.29 697.937 1438.22 717.775 1421.15C751.387 1392.24 796.766 1394.5 823.633 1426.43Z" fill="#353642"/>
</svg>
