<svg width="2909" height="2128" viewBox="0 0 2909 2128" fill="none" xmlns="http://www.w3.org/2000/svg">
<path d="M493.973 870.055C434.077 905.211 370.926 923.115 304.52 923.766C214.025 923.766 140.783 893.818 84.793 833.922C31.4076 775.979 4.71484 704.365 4.71484 619.078C4.71484 548.766 23.9206 486.591 62.332 432.555C117.671 356.383 197.423 318.297 301.59 318.297C315.262 318.297 328.934 318.948 342.605 320.25C403.803 326.76 452.957 344.339 490.066 372.984C490.066 357.359 490.717 345.641 492.02 337.828C495.275 328.062 504.389 323.18 519.363 323.18L522.293 505.797H496.902C465.652 400.328 402.501 346.943 307.449 345.641C273.595 345.641 242.996 354.104 215.652 371.031C147.944 412.698 114.09 495.706 114.09 620.055C114.09 666.93 118.973 708.922 128.738 746.031C154.78 846.292 213.048 896.422 303.543 896.422C401.85 895.771 467.28 841.083 499.832 732.359H525.223V918.883C517.41 918.883 511.551 918.232 507.645 916.93C498.53 913.023 493.973 897.398 493.973 870.055ZM1179.75 914H958.074V888.609H1023.5L950.262 699.156H748.113L674.871 888.609H724.676C727.931 888.609 731.186 888.935 734.441 889.586C744.207 890.888 749.09 899.026 749.09 914H574.285V888.609H635.809L853.582 328.062H897.527L1122.14 888.609H1154.36C1157.62 888.609 1160.87 888.935 1164.13 889.586C1174.55 890.888 1179.75 899.026 1179.75 914ZM938.543 670.836L848.699 437.438L758.855 670.836H938.543ZM1670.22 758.727C1670.22 799.091 1655.57 833.922 1626.28 863.219C1584.61 903.583 1526.02 923.766 1450.5 923.766C1385.39 923.766 1327.77 907.164 1277.64 873.961C1277.64 886.982 1276.99 896.422 1275.69 902.281C1272.44 911.396 1263 915.953 1247.37 915.953V712.828H1278.62C1279.27 719.339 1279.92 726.174 1280.57 733.336C1295.55 842.06 1350.24 896.422 1444.64 896.422C1468.73 896.422 1490.86 892.19 1511.04 883.727C1554.01 864.195 1575.5 831.643 1575.5 786.07C1575.5 769.143 1571.59 753.518 1563.78 739.195C1548.15 711.852 1511.37 685.159 1453.43 659.117C1390.27 630.471 1353.17 612.893 1342.1 606.383C1281.55 571.878 1251.28 527.281 1251.28 472.594C1251.28 435.484 1264.62 403.583 1291.32 376.891C1331.03 337.828 1386.37 318.297 1457.33 318.297C1515.27 318.297 1568.33 330.992 1616.51 356.383C1616.51 349.872 1617.16 344.339 1618.46 339.781C1620.42 328.714 1629.86 323.18 1646.79 323.18V495.055H1615.54C1616.19 457.945 1606.75 426.695 1587.21 401.305C1559.22 364.195 1518.2 345.641 1464.17 345.641C1443.33 345.641 1424.13 349.221 1406.55 356.383C1366.19 372.659 1346 401.63 1346 443.297C1346 458.922 1349.58 473.896 1356.75 488.219C1371.72 514.911 1407.85 540.953 1465.14 566.344C1528.95 594.99 1566.06 612.568 1576.47 619.078C1638.97 654.885 1670.22 701.435 1670.22 758.727ZM2143.11 914H1863.82V888.609H1956.59V353.453H1911.67C1857.63 354.104 1821.5 387.633 1803.27 454.039L1784.71 523.375H1757.37L1762.25 328.062H2249.56L2253.46 523.375H2226.12L2207.57 454.039C2189.99 387.633 2154.18 354.104 2100.14 353.453H2050.34V888.609H2117.72C2120.98 888.609 2124.23 888.935 2127.49 889.586C2137.9 891.539 2143.11 899.677 2143.11 914ZM2899.21 914H2677.53V888.609H2742.96L2669.71 699.156H2467.57L2394.32 888.609H2444.13C2447.38 888.609 2450.64 888.935 2453.89 889.586C2463.66 890.888 2468.54 899.026 2468.54 914H2293.74V888.609H2355.26L2573.04 328.062H2616.98L2841.59 888.609H2873.82C2877.07 888.609 2880.33 888.935 2883.58 889.586C2894 890.888 2899.21 899.026 2899.21 914ZM2658 670.836L2568.15 437.438L2478.31 670.836H2658ZM377.996 1128.06H653.387C721.095 1128.06 780.34 1144.01 831.121 1175.91C913.152 1228 954.168 1309.7 954.168 1421.03C954.168 1506.97 926.499 1576.96 871.16 1630.99C813.868 1686.33 740.626 1714 651.434 1714H377.996V1688.61H456.121V1153.45H377.996V1128.06ZM651.434 1153.45H549.871V1688.61H653.387C783.595 1687.96 849.025 1597.46 849.676 1417.12C849.676 1368.3 844.793 1325.98 835.027 1290.17C809.637 1199.03 748.439 1153.45 651.434 1153.45ZM1299.13 1714H1049.13V1688.61H1127.25V1153.45H1049.13V1128.06H1299.13V1153.45H1221V1688.61H1273.74C1276.99 1688.61 1280.25 1688.93 1283.5 1689.59C1293.92 1691.54 1299.13 1699.68 1299.13 1714ZM1660.69 1718.88H1647.02C1634.65 1718.88 1624.88 1716.6 1617.72 1712.05C1608.61 1705.54 1596.89 1683.08 1582.57 1644.66L1395.07 1153.45H1338.43V1128.06H1567.92V1153.45H1489.79L1664.6 1605.6L1824.75 1153.45H1746.63V1128.06H1910.69V1153.45H1861.86L1660.69 1718.88ZM2526.16 1714H2304.48V1688.61H2369.91L2296.67 1499.16H2094.52L2021.28 1688.61H2071.08C2074.34 1688.61 2077.59 1688.93 2080.85 1689.59C2090.61 1690.89 2095.5 1699.03 2095.5 1714H1920.69V1688.61H1982.21L2199.99 1128.06H2243.93L2468.54 1688.61H2500.77C2504.02 1688.61 2507.28 1688.93 2510.54 1689.59C2520.95 1690.89 2526.16 1699.03 2526.16 1714ZM2284.95 1470.84L2195.11 1237.44L2105.26 1470.84H2284.95Z" fill="#353642"/>
</svg>
