<svg width="3175" height="2128" viewBox="0 0 3175 2128" fill="none" xmlns="http://www.w3.org/2000/svg">
<path fill-rule="evenodd" clip-rule="evenodd" d="M1827.38 480.141C1808.49 483.108 1800.01 495.769 1801.64 518.534C1802.97 537.043 1803.98 538.396 1817.39 539.696C1825.28 540.464 1848.5 537.906 1869 534.017C1917.63 524.79 2036.03 524.2 2048.23 533.127C2056.27 539.005 2055.69 541.031 2036.05 575.149C2024.7 594.862 2004.73 632.46 1991.67 658.695C1978.61 684.931 1948.21 742.041 1924.1 785.604C1873.08 877.823 1853.49 900.452 1812.14 914.921C1788.63 923.153 1784.69 926.174 1783.45 936.932C1782.28 947.172 1785 951.161 1798.72 959.252C1814.11 968.338 1815.24 970.414 1813.16 985.892C1808.58 1020.02 1788.27 1047.15 1773.93 1038.28C1771.6 1036.84 1765.35 1022.59 1760.03 1006.6C1740.43 947.694 1692.49 900.32 1641.7 889.667C1608.3 882.657 1590.79 886.695 1550.83 910.614C1525.91 925.525 1515.68 929.491 1511.37 925.911C1506.91 922.213 1505.54 894.105 1505.54 806.275C1505.54 677.335 1506.82 681.747 1472.13 690.746C1411.44 706.492 1363.4 724.646 1357.15 734.2C1346.51 750.437 1355.66 761.517 1385.16 768.123C1398.91 771.199 1410.52 775.946 1410.97 778.672C1412.39 787.363 1413.52 846.681 1416.33 1060.19C1419.45 1296.79 1414.45 1271.56 1462.82 1295.08C1499.47 1312.9 1549.55 1323.03 1591.85 1321.19L1625.91 1319.7L1625.14 1335.6C1624.71 1344.35 1625.45 1363.54 1626.79 1378.26C1629.9 1412.49 1646.31 1431.71 1683.41 1444.59C1729.56 1460.61 1771.28 1464.58 1896.17 1464.83C2020.69 1465.09 2065.6 1461.68 2191.42 1442.4C2230.14 1436.47 2273.06 1430.41 2286.8 1428.94C2336.57 1423.61 2394.5 1407.96 2418.87 1393.27C2439.43 1380.87 2465.54 1353.39 2493.56 1314.67C2501.86 1303.19 2498.05 1290.17 2486.4 1290.17C2481.79 1290.17 2458.58 1300.4 2434.82 1312.91C2312.51 1377.29 2119.8 1420.65 1944.42 1423.24C1853.45 1424.59 1808.21 1411.38 1792.26 1378.8C1780.17 1354.11 1780.49 1313.88 1793.08 1276.54C1810.28 1225.52 1851.56 1135.35 1895.57 1052.68C1926.76 994.079 1937.57 977.683 1948.4 972.531C1959.66 967.166 1998.97 966.185 2176.84 966.843L2391.67 967.638L2402.09 957.212C2414.72 944.583 2429.74 907.039 2426.04 897.376C2422.22 887.418 2405.5 888.417 2311.24 904.227C2231.25 917.647 2224.99 918.029 2105.44 916.72C1971.89 915.262 1969.52 914.785 1978.55 891.043C1980.94 884.742 1992.73 863.104 2004.73 842.964C2016.74 822.821 2035.37 789.988 2046.14 769.999C2069.81 726.064 2143.69 608.918 2174.17 567.004C2190.64 544.348 2200.48 535.248 2212.93 531.137C2243.59 521.015 2455.32 531.582 2498.41 545.388C2506.12 547.86 2518.72 556.986 2526.41 565.673C2536.53 577.098 2544.16 581.464 2554.05 581.464C2565.84 581.464 2568.47 579.129 2573.17 564.428C2576.17 555.056 2583.38 541.027 2589.18 533.249C2605.51 511.361 2607.31 497.705 2595.45 485.843C2585.37 475.757 2585.35 475.753 2459.93 478.715C2390.94 480.341 2279.31 483.962 2211.86 486.756C2120.09 490.559 2065.77 490.518 1996.1 486.588C1856.25 478.692 1840.45 478.093 1827.38 480.141ZM660.694 538.569C654.449 539.646 635.031 542.835 617.543 545.656C533.84 559.172 414.039 619.775 326.179 693.045C195.75 801.823 89.6168 949.244 31.0678 1102.96C-5.61959 1199.28 -7.81347 1318.97 25.8215 1389.07C64.6619 1470.01 149.283 1519.51 275.961 1535.4C396.075 1550.46 557.114 1519.62 679.068 1458.2C774.404 1410.18 882.272 1317.61 937.042 1236.79C956.319 1208.35 968.329 1194.77 974.215 1194.77C979.761 1194.77 988.537 1203.57 998.43 1219.03C1015.91 1246.37 1053.67 1274.21 1095.67 1290.73C1117.52 1299.32 1130.53 1301 1176.23 1301.07C1225.87 1301.15 1233.32 1300.04 1259.57 1288.61C1305.72 1268.52 1343.64 1243.72 1348.25 1230.61C1353.77 1214.92 1348.15 1187.27 1337.23 1176.34C1330.84 1169.96 1322.13 1167.51 1305.71 1167.51C1284.35 1167.51 1282.24 1168.6 1269.43 1186.3C1242.24 1223.83 1211.28 1238.48 1168.57 1234.01C1115.73 1228.49 1079.01 1203.04 1048.26 1150.64C1033.74 1125.89 1035.5 1111.73 1053.59 1107.89C1061.09 1106.29 1135.42 1104.74 1218.78 1104.45L1370.35 1103.91L1367.38 1068.7C1363.79 1026.05 1350.98 982.948 1331.17 946.836C1320.25 926.919 1308.22 913.713 1284.93 896.063C1204.14 834.842 1094.55 843.655 1013.55 917.888C998.076 932.067 980.747 953.019 975.042 964.449C962.728 989.113 951.586 1038.49 951.473 1068.88C951.35 1103.6 933.849 1130.47 843.504 1234.7C758.243 1333.06 656.32 1416.71 575.328 1454.8C456.491 1510.69 262.225 1519.25 192.325 1471.68C163.941 1452.36 134.848 1414.22 129.511 1389.33C113.373 1314.06 135.239 1195.85 187.36 1076.65C266.467 895.741 426.571 705.066 574.27 615.864C632.006 580.996 651.701 575.89 726.556 576.371C814.952 576.944 836.714 581.351 880.133 607.491C923.152 633.386 948.061 660.122 958.876 691.991C966.512 714.488 967.497 744.372 963.605 835.455C963.046 848.521 964.813 856.185 968.688 857.498C978.553 860.855 1007.6 825.751 1016.83 799.329C1021.59 785.695 1037.43 750.551 1052.03 721.23C1083.06 658.927 1085 644.28 1064.99 623.805C1040.16 598.41 949.306 560.307 882.854 547.428C846.33 540.35 687.18 534.003 660.694 538.569ZM2622.83 742.355C2599.15 750.746 2571.6 761.213 2561.61 765.615C2551.61 770.017 2532.38 776.964 2518.85 781.048C2473.48 794.759 2476.99 814.053 2526.45 822.766C2541.84 825.474 2556.66 830.38 2559.39 833.66C2567.08 842.937 2568.08 1424.02 2560.41 1431.73C2557.25 1434.9 2546.24 1440.63 2535.95 1444.47C2510.94 1453.8 2502.42 1466.43 2511.96 1480.05C2518.87 1489.92 2520.62 1490.07 2632.56 1490.07C2743.03 1490.07 2763.73 1487.77 2763.73 1475.5C2763.73 1465.11 2747.94 1453.35 2725.03 1446.69C2679.64 1433.49 2678.27 1429.42 2677.76 1306.62C2676.76 1066.76 2671.67 733.273 2668.96 730.38C2667.27 728.576 2646.51 733.969 2622.83 742.355ZM1223.02 945.169C1238.31 952.81 1255.82 965.003 1261.93 972.268C1276.56 989.667 1281.61 1018.87 1272.42 1032.92C1265.83 1042.97 1262.39 1043.52 1189.09 1046.3C1145.13 1047.96 1104.92 1047.35 1094.47 1044.86C1084.48 1042.48 1069.92 1040.48 1062.1 1040.42C1041.82 1040.26 1037.23 1032.66 1044.58 1011.35C1055.05 980.963 1091 950.016 1130.01 937.813C1163.26 927.419 1192.05 929.695 1223.02 945.169ZM1613.65 983.92C1626.62 990.385 1641.32 1000.87 1646.32 1007.23C1662.5 1027.79 1674.97 1079.23 1674.91 1125.07C1674.86 1162.07 1673.29 1170.02 1660.71 1196.91C1643.16 1234.41 1632.16 1248.71 1610.81 1261.76C1589.19 1274.97 1569.58 1274.68 1542.12 1260.77C1525.55 1252.37 1518.72 1245.77 1515.04 1234.63C1511.1 1222.68 1507.49 1076.77 1509.66 1017.22C1509.98 1008.42 1515.46 1002.06 1531.66 991.707C1568.49 968.165 1579.88 967.084 1613.65 983.92ZM2806.89 1017.59C2781.33 1019.72 2779.55 1020.63 2778.22 1032.12C2777.44 1038.85 2782.27 1057.25 2788.94 1073C2795.62 1088.76 2814.92 1137.42 2831.83 1181.14C2863.78 1263.74 2899.45 1350.72 2919.91 1395.93C2926.45 1410.37 2931.78 1427.75 2931.77 1434.55C2931.71 1463.38 2904.04 1540.01 2886.86 1558.93C2875.94 1570.96 2871.75 1572.2 2832.79 1574.87C2783.58 1578.26 2780.16 1581.21 2787.19 1614.21C2793.5 1643.8 2805.97 1651.42 2847.57 1651.09C2922.47 1650.51 2946.49 1630.95 2986.76 1537.77C3001.88 1502.79 3033.61 1422.03 3057.28 1358.32C3080.95 1294.6 3117.7 1195.9 3138.95 1138.97C3163.29 1073.78 3176.54 1032.16 3174.76 1026.54C3170.82 1014.11 3155.07 1011.34 3124.08 1017.61C3088.34 1024.84 3078.45 1032.03 3072.59 1055.06C3069.88 1065.69 3060.56 1093.8 3051.86 1117.54C3043.17 1141.28 3028.05 1187.73 3018.26 1220.77C2996.96 1292.67 2984.6 1321.98 2975.58 1321.98C2967.6 1321.98 2957.8 1296.25 2947.87 1249.29C2943.91 1230.55 2933.45 1197.84 2924.64 1176.6C2915.82 1155.36 2902.82 1121.15 2895.74 1100.57C2888.66 1079.99 2877.78 1053.45 2871.57 1041.58C2858.65 1016.92 2850.64 1013.95 2806.89 1017.59Z" fill="#353642"/>
</svg>
