<svg width="3781" height="2128" viewBox="0 0 3781 2128" fill="none" xmlns="http://www.w3.org/2000/svg">
<path fill-rule="evenodd" clip-rule="evenodd" d="M3188 721.061C3092.43 770.007 3128.12 848.856 3304.51 978.61C3388.12 1040.09 3439.31 1091.14 3439.41 1113.15C3439.52 1135.1 3453.01 1148.63 3474.77 1148.63C3498.21 1148.63 3509.95 1135.16 3509.95 1108.24C3509.95 1080.56 3473.99 1041.61 3395.61 984.425C3256.85 883.142 3196.79 821.496 3211.08 794.964C3229.12 761.465 3254.89 772.833 3254.89 814.308C3254.89 850.31 3314.37 916.419 3346.77 916.419C3354.28 916.419 3360.43 884.616 3360.43 845.747C3360.43 775.337 3360.73 775.075 3440.38 775.075C3502.65 775.075 3530.28 786.483 3565.21 826.585C3615.01 883.748 3615.5 914.359 3571.27 1197.13C3548.15 1344.87 3548.36 1347.01 3589.37 1385.13C3618.3 1412.03 3644.49 1419.64 3675.94 1410.27C3700.74 1402.88 3732.9 1394.64 3747.41 1391.98C3761.92 1389.29 3776.43 1371.63 3779.65 1352.71C3789.12 1297 3747.82 1258.39 3684 1263.32C3585.87 1270.91 3586.04 1255.52 3686.14 1067.86C3766.5 917.267 3724.61 748.139 3601.54 726.089C3489.35 705.978 3223.74 702.747 3188 721.061ZM127.27 755.367C11.8977 836.115 -38.251 1104.08 32.8473 1260C94.0249 1394.14 286.986 1461.18 406.967 1389.96C463.43 1356.44 498.909 1279.83 481.741 1228.46C472.735 1201.53 465.154 1203.43 429.851 1241.49C373.546 1302.23 250.505 1305.52 182.361 1248.15C31.0355 1120.76 37.8252 829.27 193.812 755.085C264.858 721.304 341.479 747.533 349.096 808.25C356.026 863.455 304.206 886.878 265.087 846.231C225.386 804.999 159.072 806.171 159.072 848.109C159.072 871.088 169.767 877.529 195.22 869.896C222.044 861.84 235.571 871.734 247.673 908.281C271.032 978.812 345.472 1007.16 399.86 966.252C452.12 926.959 465.189 891.017 450.941 825.878C427.564 718.901 238.297 677.669 127.27 755.367ZM563.64 751.753C563.64 798.457 625.152 864.505 651.343 845.928C665.626 835.792 665.52 824.626 650.921 804.454C627.596 772.167 642.671 734.691 679.012 734.691C718.008 734.691 710.128 775.458 635.635 959.064C549.445 1171.52 520.738 1282.24 534.986 1347.38C549.638 1414.39 614.351 1439.01 645.855 1389.54C677.728 1339.48 675.863 1259.68 642.794 1259.68C603.481 1259.68 608.986 1145.44 650.27 1104.85C668.88 1086.56 757.339 1020.77 846.819 958.66C1017.58 840.154 1051.3 801.93 1033.13 747.533C1023.69 719.284 988.858 714.499 792.853 714.499C581.792 714.499 563.64 717.447 563.64 751.753ZM1114.43 747.371C1100.77 788.199 1140.04 823.414 1313.45 925.828C1465.55 1015.68 1490.22 1056.39 1521.23 1268.77L1542.04 1411.12L1608.78 1417.52C1645.47 1421.04 1688.53 1418.07 1704.43 1410.92C1729.01 1399.87 1726.26 1391.29 1686.3 1354.04C1648.52 1318.8 1634.65 1280.34 1615.94 1158.72C1594.22 1017.46 1588.82 1005.34 1535.48 978.408C1504.05 962.517 1478.32 944.142 1478.32 937.56C1478.32 930.977 1505.86 908.584 1539.51 887.766C1608.08 845.383 1632.56 787.816 1600.74 743.818C1584.22 720.96 1529.52 714.499 1352.48 714.499C1158.94 714.499 1123.79 719.345 1114.43 747.371ZM1753.9 727.967C1732.54 752.48 1741.71 800.517 1772.95 827.736C1819.12 867.958 1851.98 862.728 1839.38 817.155C1828.13 776.428 1853.79 744.343 1881.76 764.191C1891.06 770.774 1880.31 822.364 1857.1 882.658C1802.81 1023.56 1764.87 1281.51 1787.55 1355.51C1800.61 1398.22 1816.73 1411.77 1856.92 1413.95C1967 1419.86 1976.23 1404.16 1906.86 1329.04C1843.9 1260.89 1843.02 1257.76 1851.71 1133.52C1870.89 859.316 2017.83 651.964 2066.4 830.603C2084.13 895.823 2159.73 892.531 2181.91 825.555C2202.98 761.91 2260.1 759.365 2294.94 820.507C2332.16 885.808 2375.4 1090.74 2375.4 1201.89C2375.4 1280.26 2367.34 1304.41 2329.95 1338.17C2268.61 1393.55 2289.07 1420.11 2389.08 1414.92L2472.14 1410.62L2471.21 1249.32C2470.68 1160.62 2455.84 1021.5 2438.21 940.164C2405.97 791.471 2413.52 739.719 2462.36 774.368C2483.33 789.249 2483.63 797.508 2464.11 824.505C2432.29 868.503 2451.62 884.798 2497.02 852.249C2537.81 822.99 2559.71 766.634 2542.61 734.873C2530.35 712.136 1773.46 705.493 1753.9 727.967ZM2629.59 736.306C2623.14 748.3 2634.53 771.521 2654.94 787.937C2689.24 815.519 2692.02 836.378 2692.02 1066.55C2692.02 1301.64 2689.84 1317.09 2652.44 1347.19C2583.51 1402.68 2644.96 1421.78 2874.6 1416.19C3063.5 1411.61 3085.89 1407.12 3107.63 1369.49C3128.05 1334.09 3127.89 1321.95 3106.52 1288.72C3086.37 1257.36 3076.94 1254.59 3059.07 1274.83C3028.27 1309.7 2883.8 1306.55 2838.37 1270C2811.38 1248.31 2798.12 1210.39 2790.71 1133.7C2776.41 985.697 2776.31 974.571 2788.69 906.323C2794.74 873.006 2803.33 825.292 2807.76 800.315C2814.46 762.495 2827.37 754.883 2884.8 754.883C2922.74 754.883 2958.33 763.323 2963.89 773.621C2969.43 783.939 2933.93 831.128 2884.98 878.498C2822.76 938.731 2797.56 977.116 2801.18 1006.15C2805.77 1043.04 2818.1 1047.44 2911.89 1045.59C3003.16 1043.81 3017.43 1038.34 3017.43 1005.2C3017.43 972.794 3004.59 967.1 2933.88 968.171C2887.92 968.857 2850.33 962.194 2850.33 953.37C2850.33 944.526 2887.92 914.743 2933.88 887.181C3048.39 818.528 3104.04 764.898 3089.29 737.457C3072.75 706.745 2646.07 705.675 2629.59 736.306ZM957.636 771.783C975.419 804.797 915.138 871.633 791.657 955.853C722.811 1002.8 662.794 1036.98 658.291 1031.8C645.222 1016.81 746.082 789.149 769.758 780.224C781.526 775.781 801.314 800.315 813.733 834.762C835.368 894.854 837.884 896.085 875.86 865.373C897.619 847.766 915.437 815.701 915.437 794.116C915.437 754.358 940.978 740.829 957.636 771.783ZM1239.25 805.363C1293.66 867.817 1315.91 869.149 1323.17 810.411C1327.94 771.905 1341.11 764.05 1409.5 758.962C1516.03 751.006 1546.23 787.917 1494.73 863.092C1468.83 900.851 1441.87 916.358 1402.27 916.237C1338.42 916.015 1155.15 803.566 1170.93 774.267C1185.67 746.867 1190.02 748.845 1239.25 805.363ZM1948.46 896.853C1977.09 932.31 2264.5 950.846 2292.22 919.023C2306.97 902.082 2270.85 896.227 2151.69 896.227C2063.48 896.227 1976.8 890.351 1959.08 883.162C1932.98 872.582 1930.96 875.166 1948.46 896.853ZM1214.47 1105.39C1214.47 1309.23 1213.08 1316.64 1168.96 1349.84C1143.95 1368.66 1128.4 1389.74 1134.43 1396.66C1150.56 1415.16 1371.6 1419.56 1381.27 1401.57C1385.83 1393.13 1373.88 1369.97 1354.76 1350.12C1325.14 1319.35 1320.01 1287.65 1320.01 1135.93C1320.01 958.478 1319.81 957.731 1267.24 926.515L1214.47 895.197V1105.39ZM875.843 961.85C849.387 985.091 849.299 1000.5 874.875 1156.99C901.506 1320 901.278 1328.01 869.545 1354.66C822.756 1393.94 857.197 1412.01 971.057 1407.95C1022.7 1406.11 1072.87 1403.47 1082.54 1402.1C1092.22 1400.7 1078.71 1379.42 1052.52 1354.81C1016.67 1321.09 998.11 1275.11 977.442 1168.76C962.35 1091.04 946.044 1007.02 941.189 982.042C931.128 930.311 916.792 925.889 875.843 961.85ZM2076.37 1135.4C2076.37 1287.65 2071.24 1319.33 2041.61 1350.12C1992.33 1401.31 2008.07 1414.01 2118.34 1411.95C2234.54 1409.79 2249.14 1397.43 2200.96 1342.13C2169.58 1306.1 2164.32 1275.43 2164.32 1128.43C2164.32 958.822 2163.81 956.802 2120.35 956.802C2076.76 956.802 2076.37 958.357 2076.37 1135.4ZM3254.89 1147.48C3254.89 1300.01 3250.83 1321.23 3216.37 1348.93C3163.13 1391.76 3184.5 1406.72 3307.47 1412.64C3423.35 1418.23 3459.73 1391.01 3398.62 1344.43C3365.69 1319.35 3360.43 1296.51 3360.43 1178.77C3360.43 1055.9 3356.09 1038.94 3317.07 1009.6C3293.24 991.674 3269.49 976.994 3264.3 976.994C3259.13 976.994 3254.89 1053.7 3254.89 1147.48Z" fill="#353642"/>
</svg>
