<svg width="109" height="110" viewBox="0 0 109 110" fill="none" xmlns="http://www.w3.org/2000/svg">
<path d="M64 50.1325C64 44.5199 59.4902 40 54 40C48.4608 40 44 44.5695 44 50.1325V51.4238L44.7843 67.0695C44.8824 68.7086 46.2059 70 47.8235 70H60.1765C61.7941 70 63.1667 68.7086 63.2157 67.0695L64 51.4238V50.1325ZM46.2549 52.5166H47.6765V54.2053C47.6765 55.5464 48.7549 56.6391 50.0784 56.6391H50.9118V58.7252C50.9118 60.4636 52.2843 61.8543 54 61.8543C55.3725 61.8543 56.5 60.9106 56.8922 59.6689H57.9216C59.2451 59.6689 60.3235 58.5762 60.3235 57.2351V52.5166H61.7451L61.2059 63.394H46.7941L46.2549 52.5166ZM55.8627 55.149C55.2745 55.149 54.7843 55.6457 54.7843 56.2417V58.8245C54.7843 59.2715 54.4412 59.6192 54 59.6192C53.5098 59.6192 53.1176 59.2219 53.1176 58.7252V56.3907C53.1176 55.298 52.2353 54.404 51.1569 54.404H50.0784C49.9804 54.404 49.8824 54.3046 49.8824 54.2053V52.5166H58.1176V57.2351C58.1176 57.3344 58.0196 57.4338 57.9216 57.4338H56.9902V56.2417C56.9902 55.6457 56.5 55.149 55.8627 55.149ZM54 42.1854C58.3137 42.1854 61.7941 45.7119 61.7941 50.0828V50.2318H46.2059V50.0828C46.2059 45.7616 49.6863 42.1854 54 42.1854ZM60.1765 67.8146H47.8235C47.3824 67.8146 46.9902 67.4669 46.9902 66.9702L46.9412 65.6291H61.1569L61.1078 66.9702C61.0098 67.4172 60.6667 67.8146 60.1765 67.8146Z" fill="#1D1D1D"/>
</svg>
