<svg width="188" height="208" viewBox="0 0 188 208" fill="none" xmlns="http://www.w3.org/2000/svg">
<path fill-rule="evenodd" clip-rule="evenodd" d="M8.18843 1.58124C6.43343 2.56524 3.95843 4.70925 2.68843 6.34525L0.379444 9.32125L0.114429 102.248C-0.145571 193.213 -0.109563 195.262 1.83544 199.28C3.09544 201.881 5.17846 204.115 7.52346 205.377C11.0705 207.288 13.1864 207.37 58.8014 207.37C111.756 207.37 109.774 207.615 114.675 200.463C116.78 197.39 116.879 196.277 116.879 175.558C116.879 163.63 116.992 153.846 117.129 153.817C117.266 153.788 120.079 153.535 123.379 153.255C132.748 152.462 140.66 150.212 149.741 145.761C165.1 138.232 179.641 121.135 184.446 104.956C189.805 86.9102 187.374 63.2562 178.425 46.3882C166.69 24.2682 148.429 9.39425 124.681 2.61225C117.778 0.640249 114.485 0.507238 64.3794 0.160238C14.9234 -0.182762 11.1664 -0.0877568 8.18843 1.58124ZM118.379 18.8612C140.797 24.4622 160.344 42.6932 167.174 64.3702C168.963 70.0512 169.375 73.7262 169.359 83.8702C169.337 97.6912 167.972 102.765 161.664 112.475C153.024 125.775 135.778 135.87 121.697 135.87H116.879V97.5183C116.879 59.2263 116.875 59.1602 114.593 55.7682C111.203 50.7272 106.782 48.9722 97.3794 48.9332C71.6774 48.8262 50.3024 63.8703 43.4704 86.8753C39.7494 99.4072 42.1364 117.514 48.9424 128.37C54.4014 137.078 66.4754 147.856 69.0145 146.286C69.6974 145.864 69.9224 145.991 69.5524 146.59C67.9904 149.117 88.9284 154.588 96.6974 153.683L99.3794 153.37L99.6525 171.631L99.9245 189.892L58.6525 189.631L17.3794 189.37L17.1214 104.37C16.9794 57.6202 17.0924 18.7703 17.3714 18.0373C18.0714 16.2023 110.767 16.9592 118.379 18.8612ZM99.6424 101.309L99.9054 136.083L92.1424 135.724C78.9164 135.113 68.0014 127.926 62.1244 115.959C59.7324 111.089 59.3855 109.213 59.4245 101.37C59.4785 90.5042 61.4744 85.3563 68.5774 77.7613C74.4774 71.4543 81.2374 67.9392 89.2394 67.0182C100.593 65.7102 99.3424 61.5842 99.6424 101.309Z" fill="#1D1D1D"/>
</svg>
