<svg width="3041" height="913" viewBox="0 0 3041 913" fill="none" xmlns="http://www.w3.org/2000/svg">
<g clip-path="url(#clip0_57_191)">
<path d="M1392.95 233.373L1368.72 54L756.432 136.625L780.55 315.979L1392.85 233.373" fill="#76777F"/>
<path d="M1449.91 515.923V513.734C1449.91 289.964 1622.22 114.468 1854.88 114.468C2011.81 114.468 2112.79 180.299 2180.82 274.596L2020.57 398.565C1976.68 343.702 1926.11 308.607 1852.67 308.607C1745.12 308.607 1669.41 399.669 1669.41 511.504V513.694C1669.41 628.883 1745.14 718.801 1852.67 718.801C1932.78 718.801 1979.95 681.516 2026.06 625.589L2186.27 739.654C2113.91 839.475 2016.17 912.96 1846.06 912.96C1793.71 913.786 1741.73 904.071 1693.22 884.395C1644.71 864.718 1600.65 835.483 1563.69 798.43C1526.72 761.378 1497.59 717.267 1478.03 668.725C1458.48 620.182 1448.9 568.203 1449.87 515.883" fill="#353642"/>
<path d="M991.344 716.651V594.893H1360.07V428.155H780.65V897.733H1403.99V716.732H991.344" fill="#353642"/>
<path d="M2509.41 125.315H2714.42L3041.04 897.652H2813.04L2757.15 760.726H2461.22L2406.41 897.652H2182.81L2509.41 125.315ZM2695.75 595.294L2610.25 377.29L2523.66 595.294H2695.75Z" fill="#353642"/>
<path d="M523.469 629.987C571.229 612.215 612.188 579.881 640.55 537.559C668.911 495.238 683.239 445.073 681.504 394.164V391.974C683.157 359.088 677.961 326.217 666.247 295.441C654.532 264.666 636.554 236.656 613.45 213.184C561.897 160.511 480.658 129.815 363.262 129.815H0V897.732H212.885V665.083H306.182L460.942 897.632H706.768L523.508 629.987M467.554 407.322C467.554 463.25 425.85 498.345 353.394 498.345H212.925V314.07H352.329C423.659 314.07 467.554 344.786 467.554 405.133V407.322Z" fill="#353642"/>
</g>
<defs>
<clipPath id="clip0_57_191">
<rect width="3041" height="913" fill="white"/>
</clipPath>
</defs>
</svg>
