<svg width="5523" height="913" viewBox="0 0 5523 913" fill="none" xmlns="http://www.w3.org/2000/svg">
<g clip-path="url(#clip0_53_137)">
<path fill-rule="evenodd" clip-rule="evenodd" d="M210.308 241.017C120.066 262.198 48.3404 327.344 28.566 406.1C4.82187 500.711 84.5853 593.991 229.022 640.544C294.756 661.725 352.945 692.251 358.32 708.353C372.202 750.049 257.278 745.241 147.927 699.55C63.4054 664.24 54.3812 664.635 24.7196 705.221C-54.2794 813.271 70.112 897.921 307.799 897.921C494.645 897.921 571.08 840.69 571.08 700.857C571.08 593.621 530.718 551.111 376.492 495.927C223.055 441.015 191.125 377.695 329.99 403.634C382.582 413.473 438.996 432.558 455.343 446.095C495.706 479.432 526.797 455.909 557.051 369.163C580.918 300.639 577.885 295.091 503.99 272.258C381.004 234.236 283.439 223.855 210.308 241.017ZM623.623 275.316C618.1 292.28 615.683 439.289 618.223 602.029L622.858 897.921H894.078H1165.3L1173.02 817.784L1180.76 737.646H1006.59C868.214 737.646 832.438 730.052 832.438 700.66C832.438 671.884 865.305 663.673 980.376 663.673H1128.31V577.371V491.07H980.376C865.305 491.07 832.438 482.859 832.438 454.084C832.438 425.013 866.685 417.098 992.704 417.098H1152.97V330.796V244.494H893.314C707.356 244.494 630.798 253.247 623.623 275.316ZM1226.94 577.371V910.25H1325.56H1424.19V577.371V244.494H1325.56H1226.94V577.371ZM1627.38 292.206C1400.15 434.9 1399.34 722.26 1625.78 859.973C1684.19 895.48 1744.25 905.047 1889.51 901.94L2077.58 897.921V725.317V552.714H1991.29C1912.53 552.714 1904.32 559.495 1897.44 630.336C1882.11 788.342 1670.75 742.011 1670.75 580.626C1670.75 443.605 1794.9 376.24 1922.03 444.27C1964.21 466.857 1983.22 461.037 2034.41 409.848L2096 348.253L2029.04 304.387C1926 236.85 1725.22 230.76 1627.38 292.206ZM2139.23 578.851V913.233L2231.69 905.565L2324.15 897.921L2336.48 741.542L2348.8 585.163L2468.88 749.063C2577.47 897.255 2596.33 912.222 2666.13 905.417L2743.31 897.921L2750.19 571.207L2757.06 244.494H2657.72H2558.38V409.651V574.782L2431.58 409.651C2319.64 263.85 2295.08 244.494 2222 244.494H2139.23V578.851ZM2829.6 578.21V911.926L3094.66 904.924L3359.72 897.921L3367.43 817.784L3375.18 737.646H3201C3062.63 737.646 3026.85 730.052 3026.85 700.66C3026.85 671.884 3059.72 663.673 3174.79 663.673H3322.73V577.371V491.07H3174.79C3059.72 491.07 3026.85 482.859 3026.85 454.084C3026.85 425.013 3061.1 417.098 3187.12 417.098H3347.39V330.796V244.494H3088.5H2829.6V578.21ZM3400.82 489.96C3409.57 707.909 3417.34 742.504 3470.03 798.6C3608.18 945.683 3869.71 935.548 3964.88 779.466C4003.35 716.391 4012.94 655.142 4013.01 472.577L4013.11 244.494H3914.48H3815.86V452.333C3815.86 608.391 3806.22 669.813 3777.12 698.909C3731.26 744.748 3727.98 745.142 3666.29 712.125C3624.6 689.81 3618.61 658.865 3618.61 465.55V244.494H3504.79H3390.96L3400.82 489.96ZM4083.55 275.316C4078.72 292.28 4074.75 439.289 4074.75 602.029V897.921H4173.38C4266.63 897.921 4272.42 893.557 4279.72 817.784C4290.35 707.736 4361.11 710.967 4414.98 823.948C4451.92 901.422 4466.24 910.25 4555.15 910.25C4668.43 910.25 4675.68 889.217 4602.94 771.526L4551.73 688.651L4602.94 623.53C4696.26 504.878 4655.46 337.108 4519.5 280.297C4411.63 235.198 4096.03 231.598 4083.55 275.316ZM4703.49 577.371V910.25H4802.11H4900.74V577.371V244.494H4802.11H4703.49V577.371ZM4980.16 571.207L4987.04 897.921L5252.09 904.924L5517.15 911.926V824.786V737.646H5344.55C5210.1 737.646 5171.96 729.731 5171.96 701.843C5171.96 675.139 5211.14 664.166 5326.06 658.692C5480.16 651.344 5480.16 651.344 5487.88 571.207L5495.62 491.07H5333.78C5208.65 491.07 5171.96 482.933 5171.96 455.218C5171.96 428.095 5212.54 417.566 5338.39 412.067L5504.82 404.769L5512.54 324.631L5520.28 244.494H5246.77H4973.28L4980.16 571.207ZM4444.6 491.07C4444.6 542.604 4431.43 553.971 4364.46 560.432C4289.48 567.681 4284.33 563.193 4284.33 491.07C4284.33 418.947 4289.48 414.459 4364.46 421.709C4431.43 428.169 4444.6 439.536 4444.6 491.07Z" fill="#353642"/>
</g>
<defs>
<clipPath id="clip0_53_137">
<rect width="5523" height="913" fill="white"/>
</clipPath>
</defs>
</svg>
