<svg width="2129" height="2128" viewBox="0 0 2129 2128" fill="none" xmlns="http://www.w3.org/2000/svg">
<path fill-rule="evenodd" clip-rule="evenodd" d="M1016.97 0.533487C1009.82 0.782507 989.333 2.28962 971.447 3.88409C839.838 15.6177 718.682 48.715 603.513 104.399C570.516 120.353 525.892 144.816 502.238 159.917C495.084 164.485 486.722 169.605 483.656 171.294C480.59 172.983 467.002 182.219 453.463 191.818C333.398 276.927 233.126 383.427 157.059 506.631C92.7072 610.858 44.205 733.729 21.0381 851.21C12.3452 895.296 12.7373 892.838 6.96745 939.482C5.76702 949.192 4.01096 962.154 3.06511 968.287C-0.0140156 988.271 -1.08252 1081.07 1.30162 1121.6C5.89894 1199.78 12.8321 1247.22 29.4672 1314.36C45.0895 1377.41 54.4365 1407.13 75.2192 1459.82C110.816 1550.08 169.96 1651.85 230.854 1727.63C299.806 1813.43 383.098 1890.26 469.719 1947.96C586.519 2025.75 708.826 2077.91 838.681 2105.28C898.286 2117.85 911.106 2120.14 929.637 2121.54C939.857 2122.32 955.745 2123.99 964.943 2125.26C985.165 2128.05 1134.18 2129.08 1156.34 2126.58C1256.63 2115.27 1337.37 2097.53 1419.58 2068.76C1496.06 2042 1590.09 1994.88 1654.62 1951C1663.35 1945.06 1672.36 1938.95 1674.63 1937.42C1687.3 1928.88 1732.63 1894.32 1745.3 1883.53C1783.77 1850.79 1842.79 1792.63 1871.77 1758.93C1991.76 1619.37 2072.93 1453.38 2108.56 1274.72C2134.14 1146.43 2135.73 1010.97 2113.23 877.227C2104.69 826.435 2084.37 750.768 2065.3 698.727C2024.39 587.084 1970.21 492.254 1890.69 393.126C1789.91 267.486 1652.87 161.263 1506.62 95.4211C1502.03 93.3509 1494.08 89.781 1488.97 87.4878C1404.35 49.5216 1291.98 19.0594 1194.44 7.64728C1143.36 1.66895 1069.58 -1.2877 1016.97 0.533487ZM1154.49 19.576C1176.97 21.6016 1197.04 23.644 1199.08 24.1179C1201.13 24.5917 1210.13 25.8852 1219.09 26.9909C1251.45 30.9845 1318.64 45.7807 1361.92 58.4473C1500.56 99.0189 1634.26 172.271 1749.13 270.591C1777.59 294.955 1842.73 360.523 1865.63 387.859C1926.03 459.965 1982.35 548.31 2014.18 620.871C2020.43 635.126 2026.25 647.672 2027.1 648.75C2029.1 651.281 2051.45 708.279 2057.42 726.05C2085.55 809.858 2102.01 889.53 2109.68 979C2113.96 1028.92 2112.65 1131.33 2107.12 1179.21C2082.74 1390.25 2002.16 1577.81 1865.16 1742.39C1837.63 1775.47 1770.94 1841.42 1736.12 1870.03C1628.57 1958.37 1520.73 2018.24 1392.34 2060.89C1320.91 2084.62 1259.13 2097.66 1165.63 2108.75C1133.74 2112.53 991.871 2111.94 954.719 2107.86C811.829 2092.19 671.479 2047.39 551.395 1979.13C458.549 1926.34 385.501 1870.35 313.626 1796.86C282.756 1765.3 249.947 1727.48 234.029 1705.12C229.3 1698.48 221.834 1688.59 217.439 1683.15C197.555 1658.51 156.137 1591.61 131.53 1544.38C101.636 1487 64.4023 1390.34 49.9247 1332.52C38.8179 1288.17 23.976 1205.23 19.9994 1165.27C16.0822 1125.92 15.5637 1037.24 18.9773 990.587C23.3851 930.363 29.1847 890.017 41.5495 833.556C49.0439 799.342 67.3049 736.137 76.7188 711.834C105.185 638.338 124.255 596.646 150.516 550.473C234.366 403.046 344.999 284.537 488.132 188.824C503.045 178.852 517.755 169.287 520.821 167.568C523.887 165.851 529.322 162.651 532.9 160.458C559.904 143.902 611.779 117.327 644.395 103.341C652.06 100.054 660.84 96.2499 663.906 94.8896C666.973 93.5293 684.115 86.9953 702.001 80.3721C794.872 45.9795 884.68 26.4389 989.101 17.9091C1026.88 14.8224 1111.12 15.6716 1154.49 19.576ZM1035.8 85.1035C1034.33 90.5819 1034.29 183.81 1035.76 187.625C1036.38 189.242 1038.8 190.565 1041.13 190.565C1046.87 190.565 1047.64 187.707 1047.64 166.407C1047.64 144.643 1048.35 142.241 1054.8 142.274C1065.74 142.33 1067.85 144.147 1076.89 161.372C1081.75 170.634 1088.34 180.991 1091.52 184.388C1097.37 190.619 1105.24 192.712 1105.24 188.034C1105.24 185.607 1095.45 167.022 1086.99 153.398C1081.28 144.194 1081.88 141.347 1090.81 135.35C1100.72 128.697 1103.32 123.542 1103.36 110.526C1103.38 101.359 1102.64 99.3032 1096.86 92.5574C1088.98 83.3455 1080.11 80.9222 1054.26 80.9222C1037.85 80.9222 1036.86 81.1452 1035.8 85.1035ZM768.433 95.7742C758.295 106.517 755.215 112.514 759.835 112.514C762.613 112.514 785.622 96.0325 785.622 94.0422C785.622 93.1855 784.158 90.6767 782.37 88.469L779.118 84.4531L768.433 95.7742ZM956.02 85.9788C952.685 86.4805 950.213 88.3408 949.145 91.1562C947.647 95.094 926.849 195.243 926.849 198.513C926.849 200.881 935.611 199.948 937.766 197.35C938.911 195.971 940.628 190.744 941.581 185.735C944.057 172.744 945.331 170.196 949.817 169.27C953.751 168.46 981.153 165.632 986.072 165.529C987.473 165.502 989.991 168.822 991.667 172.911C997.875 188.047 1001.06 192.424 1005.87 192.424C1009.37 192.424 1010.47 191.444 1010.47 188.35C1010.47 184.386 983.939 120.903 972.967 98.6138C967.982 88.4876 964.65 84.2747 962.156 84.9455C961.645 85.0831 958.884 85.5476 956.02 85.9788ZM1140.79 113.908C1139.49 130.005 1137.66 150.285 1136.71 158.973C1135.77 167.661 1135 179.16 1134.99 184.526C1134.97 193.723 1135.24 194.282 1139.67 194.282C1142.82 194.282 1144.88 192.914 1145.94 190.101C1147.2 186.789 1155.53 96.328 1155.44 86.9619C1155.42 85.5774 1152.94 84.6389 1149.28 84.6389H1143.15L1140.79 113.908ZM1085.11 97.3872C1090.83 103.784 1091.87 111.394 1088.4 121.353C1085.77 128.883 1077.87 132.027 1061.57 132.027H1048.56L1048.03 113.575C1047.73 103.427 1047.96 93.9121 1048.53 92.4329C1049.35 90.2827 1052.61 89.9166 1064.7 90.6172C1078.87 91.4368 1080.18 91.8735 1085.11 97.3872ZM1200.96 92.5369C1200.52 93.8155 1197.99 108.24 1195.34 124.594C1192.68 140.947 1188.83 163.441 1186.78 174.58C1183.7 191.297 1183.47 195.239 1185.49 197.159C1187.64 199.205 1230.94 207.337 1239.5 207.303C1241.73 207.294 1242.75 205.826 1242.75 202.644C1242.75 200.089 1242.54 197.987 1242.29 197.974C1234.7 197.571 1200.89 190.13 1199.99 188.664C1199.29 187.534 1198.98 184.78 1199.3 182.546C1202.36 161.458 1204.27 151.426 1205.34 150.761C1206.05 150.326 1212.03 151.131 1218.65 152.549C1234.6 155.968 1240.76 155.914 1242.13 152.344C1243.97 147.554 1240.17 145.677 1224.01 143.367C1215.07 142.088 1208.31 140.196 1207.86 138.843C1206.53 134.854 1211.41 105.332 1213.71 103.419C1215.16 102.217 1222.41 102.858 1235.18 105.321C1250.9 108.35 1254.75 108.586 1256.01 106.594C1260.23 99.9425 1258.74 99.3664 1220.92 93.074C1200.31 89.6453 1201.93 89.6881 1200.96 92.5369ZM872.031 99.5578C836.304 106.872 831.718 108.331 832.446 112.159C833.242 116.333 840.1 117.104 852.25 114.387C858.358 113.02 862.864 112.825 863.921 113.882C865.187 115.148 884.109 202.044 884.109 206.59C884.109 206.974 887.036 207.29 890.613 207.29C894.19 207.29 897.117 206.562 897.117 205.672C897.117 204.78 892.903 183.431 887.752 158.226C882.601 133.023 878.843 111.659 879.402 110.754C879.962 109.849 886.685 107.63 894.343 105.826C906.719 102.908 908.267 102.065 908.267 98.2365C908.267 92.6336 905.333 92.7395 872.031 99.5578ZM973.317 128.806C978.726 142.367 982.656 153.957 982.051 154.563C980.478 156.135 949.159 159.605 947.901 158.347C946.811 157.254 950.884 133.804 955.97 111.89C959.698 95.8318 960.463 96.5789 973.317 128.806ZM1298.78 112.05C1297.84 113.839 1294.78 123.664 1291.97 133.885C1289.16 144.106 1283.09 164.595 1278.48 179.415C1267.99 213.092 1267.8 215.469 1275.5 216.218C1281.23 216.775 1281.36 216.601 1284.54 204.139C1286.31 197.185 1288.83 187.731 1290.14 183.132C1291.44 178.532 1295.27 164.526 1298.64 152.004C1302.02 139.483 1305.37 129.239 1306.09 129.239C1307.74 129.239 1308.85 133.982 1311.5 152.469C1312.67 160.646 1315.18 176.535 1317.08 187.778C1318.98 199.021 1321.07 212.252 1321.73 217.181C1323.2 228.215 1327.87 233.307 1336.52 233.307C1342.37 233.307 1343.12 232.677 1344.88 226.339C1345.94 222.507 1350.94 204.735 1355.99 186.848C1372.62 127.955 1372.71 127.381 1365.31 127.381C1363.01 127.381 1360.81 129.596 1359.13 133.595C1356.45 140.014 1340.59 196.15 1338.45 206.805C1337.78 210.115 1336.59 213.222 1335.8 213.709C1334.04 214.8 1332.23 206.227 1323.38 154.864L1316.43 114.516L1309.29 111.658C1300.47 108.129 1300.85 108.114 1298.78 112.05ZM777.26 122.843C767.039 126.285 757.213 129.132 755.425 129.171C753.106 129.219 752.173 130.756 752.173 134.525C752.173 139.397 772.549 209.1 779.285 227.268C782.558 236.099 784.277 236.606 796.905 232.471C801.43 230.99 812.451 227.595 821.393 224.926C836.064 220.548 837.653 219.632 837.653 215.54C837.653 209.647 835.49 209.742 812.656 216.625C797.86 221.085 793.726 221.732 791.981 219.857C789.47 217.156 781.905 192.697 781.905 187.283C781.905 184.425 784.594 182.801 794.501 179.673C801.428 177.488 808.016 175.698 809.14 175.698C810.262 175.698 812.223 174.444 813.496 172.911C815.278 170.763 815.306 169.517 813.618 167.483C811.734 165.212 809.69 165.31 798.988 168.192C774.368 174.819 776.974 175.44 772.815 161.973C767.155 143.645 766.201 136.849 769.16 135.913C770.548 135.474 779.211 132.835 788.409 130.05C807.33 124.319 808.506 123.635 806.854 119.329C805.147 114.88 798.6 115.657 777.26 122.843ZM680.092 155.736C672.354 158.215 659.757 170.339 656.286 178.649C652.322 188.134 651.083 205.127 653.656 214.724C663.059 249.811 687.12 270.525 711.998 264.95C729.386 261.053 750.427 246.325 750.209 238.202C750.02 231.094 732.6 193.399 729.2 192.741C727.462 192.403 720.631 194.659 714.02 197.753C704.965 201.992 702.001 204.319 702.001 207.192C702.001 211.583 705.78 212.087 714.891 208.911C719.667 207.246 721.425 207.342 723.432 209.375C727.096 213.09 737.077 237.321 736.046 240.007C734.306 244.543 720.996 252.001 710.84 254.13C700.925 256.212 700.12 256.087 693.016 251.385C683.314 244.965 677.039 236.543 671.137 222.018C663.821 204.01 663.28 192.851 669.145 180.865C675.175 168.538 682.184 164.188 698.232 162.805C709.021 161.876 710.428 161.298 710.957 157.579C711.524 153.578 711.002 153.405 698.879 153.588C691.908 153.692 683.453 154.66 680.092 155.736ZM571.484 176.274C564.207 186.021 558.915 195.456 558.915 198.682C558.915 204.163 563.787 201.862 571.183 192.888C582.838 178.748 583.191 178.172 582.032 175.148C579.993 169.833 575.972 170.263 571.484 176.274ZM1465.27 181.548L1457.93 189.257L1458.59 204.174L1459.24 219.089L1450.56 221.323C1438.49 224.428 1430.6 230.6 1426.31 240.295C1421.55 251.068 1423.08 259.196 1431.65 268.687C1444.81 283.256 1448.58 284.444 1484.5 285.315C1485.1 285.33 1486.59 288.673 1487.81 292.745C1490.29 301.005 1496.72 306.027 1499.4 301.793C1501.62 298.283 1501.46 296.252 1498.18 286.969C1495.38 279.054 1495.42 278.748 1499.57 275.481C1516.5 262.162 1519.81 258.75 1519.27 255.152C1518.04 246.894 1513.56 247.52 1503.08 257.423C1497.55 262.641 1492.38 266.25 1491.58 265.442C1489.02 262.846 1478.57 232.735 1479.44 230.462C1479.91 229.258 1483.24 227.792 1486.86 227.205C1501.92 224.759 1514.06 213.443 1514.06 201.834C1514.06 191.836 1502.51 179.17 1490.31 175.78C1477.51 172.227 1473.19 173.225 1465.27 181.548ZM1495.62 190.422C1501.66 196.465 1502.5 202.527 1498.17 208.721C1494.5 213.96 1490.86 215.839 1481.3 217.42C1473.9 218.645 1473.55 218.476 1471.54 212.713C1467.84 202.076 1469.7 190.469 1475.78 186.412C1480.72 183.113 1490.23 185.037 1495.62 190.422ZM603.513 195.685C598.988 197.149 557.057 220.635 557.057 221.706C557.057 223.447 576.641 259.503 592.616 287.174C601.757 303.007 609.484 314.35 611.375 314.714C615.439 315.497 661.119 289.352 661.119 286.243C661.119 284.975 660.011 283.02 658.661 281.898C656.791 280.346 651.926 282.297 638.389 290.032C628.594 295.629 619.795 300.208 618.838 300.208C616.056 300.208 611.898 294.631 604.386 280.837L597.381 267.968L602.328 264.022C605.048 261.854 611.864 257.754 617.472 254.914C627.875 249.646 629.739 246.63 625.013 242.707C622.891 240.945 619.518 242.058 608.255 248.241C600.501 252.497 593.126 255.578 591.866 255.085C590.606 254.595 585.89 247.685 581.381 239.734L573.186 225.274L577.195 222.029C579.4 220.243 587.478 215.339 595.145 211.13C604.979 205.733 609.088 202.429 609.088 199.918C609.088 195.739 607.373 194.436 603.513 195.685ZM1466.79 234.162C1469.85 238.827 1480.98 272.58 1479.84 273.721C1479.49 274.067 1476.29 274.825 1472.72 275.403C1462.87 277.003 1446.54 271.55 1440.82 264.753C1429.3 251.066 1441.06 231.183 1461.52 229.75C1462.77 229.663 1465.15 231.648 1466.79 234.162ZM522.172 243.079L518.158 247.351L521.778 257.52C534.825 294.172 547.855 334.599 547.388 336.97C547.017 338.858 536.854 331.819 516.175 315.343C470.722 279.129 471.101 279.378 466.289 282.749C464.087 284.291 462.286 286.624 462.286 287.934C462.286 290.078 517 332.137 541.921 349.148C551.763 355.866 551.93 355.905 557.252 352.761C563.436 349.107 563.566 348.358 559.965 337.241C558.499 332.716 551.283 309.779 543.928 286.27C536.573 262.762 529.573 242.465 528.371 241.166C526.624 239.28 525.381 239.663 522.172 243.079ZM1027.19 241.828C916.254 249.233 832.14 268.107 745.259 305.09C641.394 349.302 563.696 401.516 484.345 480.431C431.3 533.186 402.119 569.673 363.932 630.995C304.115 727.056 265.878 831.776 249.596 944.128C243.445 986.571 242.083 1008.73 242.116 1065.85C242.165 1148.63 247.539 1191.59 268.182 1274.25C280.67 1324.25 284.119 1334.83 301.302 1375.85C320.289 1421.16 337.685 1455.16 366.133 1502.56C392.213 1546.02 455.178 1623.36 493.22 1658.67C526.669 1689.71 540.024 1700.99 568.493 1722.24C632.517 1770.03 701.326 1808.49 767.969 1833.72C851.841 1865.48 920.977 1879.93 1029.05 1888.3C1068.26 1891.34 1080.02 1891.21 1117.32 1887.35C1127.54 1886.3 1145.1 1884.54 1156.34 1883.45C1205.25 1878.7 1273.21 1863.74 1329.16 1845.41C1386.67 1826.57 1465.49 1787.51 1523.35 1749.19C1537.91 1739.55 1582.89 1706.08 1589.32 1700.11C1591.36 1698.21 1601.81 1689.03 1612.54 1679.71C1659.74 1638.75 1724.76 1563.6 1755.36 1514.64C1826.95 1400.12 1864.75 1296.4 1882.34 1166.2C1885.97 1139.32 1886.49 1127.17 1886.56 1067.71C1886.62 1013.07 1885.98 994.638 1883.27 972.933C1871.46 878.244 1851.89 806.589 1816.02 726.701C1773.22 631.374 1710.56 543.216 1633.86 470.441C1595.98 434.497 1576.33 417.61 1552.15 400.249C1426.45 309.974 1297.27 260.497 1147.98 245.452C1119.93 242.623 1047.72 240.458 1027.19 241.828ZM1155.41 261.092C1260.43 275.232 1339.59 299.305 1427.65 343.881C1515.6 388.404 1583.52 438.719 1648.91 507.785C1709.33 571.6 1751.24 631.506 1789.07 708.117C1833.51 798.114 1858.61 887.114 1869.25 992.445C1872.31 1022.76 1872.33 1109.73 1869.28 1138.33C1857.79 1246.11 1832.4 1334.28 1786.36 1426.31C1758.15 1482.71 1720.36 1540.39 1681.63 1586.19C1662.45 1608.86 1594.94 1674.5 1572.59 1692.2C1453.74 1786.33 1327.65 1842.09 1186.08 1863.11C1131.73 1871.17 1106.83 1872.8 1053.21 1871.77C967.948 1870.15 903.961 1859.96 822.787 1835.11C771.724 1819.47 713.758 1794.49 666.694 1767.83C582.738 1720.28 501.768 1652.42 442.178 1579.69C403.495 1532.47 362.187 1468.1 339.617 1419.87C334.356 1408.62 327.243 1393.57 323.811 1386.42C310.478 1358.63 293.19 1306.62 279.341 1252.62C258.843 1172.69 252.281 1086.83 259.757 996.359C263.064 956.354 274.504 889.229 282.912 860.502C305.226 784.263 314.51 759.748 342.655 702.737C362.096 663.357 381.086 632.644 412.622 589.571C469.817 511.451 524.065 457.759 597.017 407.064C602.9 402.975 610.324 397.461 613.511 394.811C616.699 392.161 631.852 382.485 647.182 373.307C744.019 315.337 841.899 280.433 954.084 263.864C1005.81 256.225 1108.74 254.807 1155.41 261.092ZM1619.98 266.111C1615.54 267.895 1608.7 274.689 1605.86 280.138C1600.43 290.574 1602.9 299.188 1618.02 322.579C1622.02 328.771 1625.83 336.247 1626.47 339.189C1628.89 350.192 1618.05 361.534 1605.11 361.534C1593.52 361.534 1581.87 351.592 1575.19 335.996C1571.5 327.396 1570.41 326.803 1565.22 330.6C1561.89 333.029 1561.93 333.424 1566.16 342.166C1574.06 358.49 1590.31 371.42 1606.15 373.99C1616.21 375.624 1628.53 370.012 1634.41 361.114C1641.82 349.921 1641.35 337.201 1633.06 324.095C1629.59 318.623 1624.37 309.808 1621.44 304.508C1616.38 295.354 1616.25 294.549 1618.82 288.398C1625.61 272.128 1645.11 275.026 1657.21 294.105C1663.67 304.289 1667.97 307.43 1670.33 303.676C1672.55 300.143 1670.78 295.326 1662.95 283.607C1658.77 277.345 1653.45 272.1 1648.95 269.798C1641.69 266.089 1625.25 263.996 1619.98 266.111ZM1061.33 290.48C1058.71 292.186 1056.19 309.812 1057.82 314.967C1058.67 317.639 1060.62 318.792 1064.29 318.792C1070.59 318.792 1071.79 316.248 1071.79 302.908C1071.79 294.921 1071.07 292.518 1068.2 290.981C1063.97 288.718 1064.03 288.724 1061.33 290.48ZM1166.04 312.873C1161.85 317.653 1157.27 327.459 1157.27 331.642C1157.27 335.814 1163.6 340.057 1167.55 338.539C1170.98 337.225 1177.71 323.765 1177.71 318.234C1177.71 312.053 1169.9 308.465 1166.04 312.873ZM952.826 316.108C950.559 322.072 955.017 332.692 961.558 336.903C965.25 339.28 965.88 339.09 968.731 334.74C971.711 330.191 971.654 329.563 967.471 321.129C962.136 310.373 955.829 308.21 952.826 316.108ZM384.061 353.573C360.617 375.929 351.72 385.432 351.72 388.123C351.72 389.119 353.102 390.805 354.792 391.87C357.259 393.429 360.13 391.842 369.436 383.778L381.012 373.751L413.752 407.668C431.759 426.322 447.745 441.527 449.278 441.454C450.811 441.384 453.621 440.146 455.522 438.706C458.88 436.164 458.87 435.939 455.187 430.867C453.102 427.996 442.081 416.448 430.694 405.205C419.308 393.962 405.769 379.933 400.607 374.031L391.223 363.297L400.739 353.234C410.651 342.755 412.016 339.293 407.666 335.682C405.585 333.956 400.949 337.47 384.061 353.573ZM1703.6 343.777C1693.89 349.178 1678.84 357.589 1670.15 362.47C1661.46 367.352 1647.46 375.118 1639.02 379.729C1628.26 385.616 1623.69 389.147 1623.69 391.593C1623.69 396.092 1632.71 399.846 1636.7 397.006C1643.64 392.067 1653.66 387.551 1657.67 387.551C1660.73 387.551 1666.21 391.898 1675.68 401.825L1689.3 416.097L1685.36 423.661C1679.07 435.747 1677.78 440.389 1679.72 443.865C1682.75 449.276 1688.05 447.566 1691.57 440.049C1693.35 436.217 1699.77 423.045 1705.83 410.78C1718.1 385.919 1735.19 347.905 1735.19 345.465C1735.19 344.004 1723.1 333.467 1721.82 333.809C1721.51 333.893 1713.31 338.379 1703.6 343.777ZM1039.27 337.622C979.635 348.464 951.334 360.335 917.11 388.861C900.315 402.862 880.408 424.157 875.482 433.395C872.049 439.832 872.053 439.884 876.204 443.27C881.599 447.669 885.973 446.403 891.061 438.977C897.948 428.925 921.421 406.147 936.443 394.938C975.082 366.105 1019.04 351.987 1070.86 351.761C1129.73 351.506 1193.35 382.587 1233.62 431.265C1245.19 445.253 1248.3 447.626 1252.79 445.901C1256.88 444.335 1257.44 438.678 1254.18 431.954C1249.09 421.447 1217.27 390.004 1200.16 378.573C1183.36 367.352 1158.25 354.394 1144.25 349.713C1109.62 338.141 1064.81 332.978 1039.27 337.622ZM1718.47 352.803C1718.47 355.743 1699.51 394.425 1695.52 399.63C1692.75 403.235 1692.3 402.986 1680.54 391.383C1666.48 377.51 1666.48 377.544 1684.91 367.763C1691.61 364.206 1701.28 358.862 1706.39 355.884C1716.87 349.774 1718.47 349.369 1718.47 352.803ZM865.592 372.561C862.459 378.417 863.286 380.846 870.958 388.341C876.751 393.996 879.191 395.222 882.833 394.308C892.104 391.981 890.866 384.804 879.469 374.797C871.81 368.072 868.297 367.507 865.592 372.561ZM1249.3 374.749C1241.9 381.247 1239.35 388.092 1242.77 392.221C1247.66 398.11 1258.59 392.667 1264.39 381.457C1267.24 375.938 1267.2 375.551 1263.22 372.331C1257.72 367.875 1256.99 368.001 1249.3 374.749ZM1771.03 401.84C1765.12 406.632 1756.09 414.458 1750.98 419.232C1736.14 433.097 1716.27 450.8 1708.63 456.955C1704.57 460.229 1701.81 463.955 1702.13 465.749C1703.01 470.827 1737.08 506.486 1741.04 506.486C1748.29 506.486 1746.73 501.003 1735.92 488.4C1729.98 481.481 1723.97 474.42 1722.56 472.704C1720.97 470.779 1720.59 468.549 1721.55 466.875C1722.41 465.384 1737.74 451.088 1755.63 435.108C1773.52 419.126 1788.89 404.958 1789.8 403.624C1791.41 401.254 1786.27 393.126 1783.16 393.126C1782.41 393.126 1776.95 397.047 1771.03 401.84ZM322.982 415.303C320.369 420.187 320.373 420.198 326.169 425.718C331.091 430.406 369.143 461.337 382.426 471.446C385.979 474.15 388.365 476.902 387.727 477.56C387.09 478.218 379.982 477.129 371.932 475.141C363.882 473.15 343.51 468.415 326.663 464.62C309.814 460.824 294.973 457.312 293.681 456.815C291.386 455.935 280.177 466.358 280.177 469.372C280.177 471.056 345.073 525.606 356.484 533.515C360.452 536.264 364.975 538.024 366.536 537.425C372.103 535.288 369.338 529.124 358.688 519.933C340.844 504.532 305.869 476.752 304.325 476.752C303.526 476.752 302.357 475.405 301.725 473.758C300.772 471.275 301.452 470.997 305.708 472.125C308.529 472.873 330.907 478.356 355.436 484.308L400.034 495.129L406.074 489.292C409.396 486.083 412.113 482.927 412.113 482.28C412.113 481.203 394.995 466.59 357.627 435.773C324.874 408.764 326.096 409.485 322.982 415.303ZM830.421 453.967C828.826 457.819 828.356 475.338 828.748 516.504C829.261 570.627 829.484 573.83 832.898 576.326C835.966 578.567 870.84 578.961 1066.2 578.961C1242.38 578.961 1296.42 578.441 1298.13 576.731C1299.77 575.089 1300.36 558.715 1300.36 514.608C1300.36 462.102 1299.99 454.349 1297.38 451.733C1293.72 448.081 1291.89 448.6 1267.84 460.077C1219.26 483.262 1179.3 512.287 1156.84 540.709C1152.73 545.905 1148.57 550.157 1147.6 550.157C1146.63 550.157 1144.36 545.976 1142.55 540.865C1134.36 517.779 1119.27 493.137 1101.89 474.511C1093.43 465.433 1068.8 448.877 1063.76 448.877C1059.84 448.877 1037.4 464.251 1027.51 473.704C1015.58 485.118 999.332 510.475 990.132 532.038C985.661 542.513 981.036 551.086 979.856 551.086C978.674 551.086 975.85 547.782 973.581 543.746C967.35 532.659 937.91 506.235 913.288 489.628C892.57 475.655 847.996 452.209 837.469 449.744C833.405 448.793 832.285 449.466 830.421 453.967ZM1074.77 472.768C1086.53 481.381 1102.14 499.028 1110.55 513.224C1118.54 526.712 1131.26 555.022 1131.26 559.333C1131.26 560.999 1126.66 561.991 1115.93 562.641C1099.74 563.623 998.935 562.312 997.626 561.103C995.097 558.765 1011.69 521.938 1022.24 506.486C1034.34 488.753 1057.32 467.46 1064.36 467.46C1066.1 467.46 1070.78 469.848 1074.77 472.768ZM877.606 486.828C895.153 496.61 910.309 506.881 925.92 519.568C941.121 531.923 965.873 557.497 965.873 560.848C965.873 562.651 952.707 563.158 906.527 563.13C873.887 563.11 846.545 562.455 845.764 561.675C844.319 560.229 844.761 475.064 846.227 472.691C847.171 471.164 859.346 476.648 877.606 486.828ZM1284.34 475.358C1285.75 480.558 1283.48 560.257 1281.89 561.238C1280.73 561.952 1215.12 562.708 1180.97 562.4C1170.1 562.301 1162.85 561.484 1162.85 560.357C1162.85 557.349 1190.53 529.143 1203.73 518.704C1217.59 507.742 1234.88 495.335 1236.29 495.335C1236.82 495.335 1240.37 493.377 1244.18 490.985C1253.11 485.378 1280.13 471.177 1281.87 471.177C1282.6 471.177 1283.71 473.057 1284.34 475.358ZM1807.94 479.902C1793.71 485.72 1775.14 502.137 1770.54 512.958C1762.88 530.958 1765.22 547.968 1777.28 562.065C1792.13 579.411 1814.67 581.899 1838.63 568.837C1862.61 555.764 1874.86 538.702 1875.04 518.149C1875.19 500.99 1863.2 482.888 1848.02 477.358C1837.52 473.529 1820.95 474.579 1807.94 479.902ZM1849.67 489.576C1863.17 497.809 1867.64 515.179 1860.06 529.96C1856.06 537.767 1838.27 553.327 1826.41 559.398C1818.18 563.606 1800.08 565.252 1793.23 562.415C1785.42 559.181 1777.93 546.539 1777.93 536.593C1777.93 525.266 1782.3 517.149 1794.02 506.697C1814.9 488.088 1836.39 481.478 1849.67 489.576ZM236.973 532.004C234.163 534.944 231.863 538.462 231.863 539.819C231.863 542.082 251.136 566.672 289.095 612.835L303.961 630.914L306.934 626.374C308.571 623.878 309.909 621.001 309.909 619.983C309.909 618.964 306.111 613.467 301.469 607.768L293.029 597.406L297.936 588.389C300.637 583.429 306.315 575.533 310.558 570.842L318.271 562.312L332.086 565.263C345.266 568.079 346.015 568.057 348.416 564.775C349.798 562.883 350.69 559.655 350.397 557.603C349.958 554.544 346.519 553.009 331.279 549.07C321.059 546.427 298.899 540.672 282.035 536.279C240.611 525.491 242.98 525.716 236.973 532.004ZM265.352 545.312C281.231 549.952 297.082 556.098 299.555 558.572C300.965 559.982 299.657 564.087 295.043 572.723C287.543 586.761 286.646 587.59 282.591 584.232C277.063 579.655 248.587 545.771 248.587 543.772C248.587 541.006 251.547 541.278 265.352 545.312ZM1885.71 580.132C1873.95 586.698 1855.14 596.737 1843.9 602.442C1819.21 614.967 1816.39 617.175 1818.94 621.938C1819.96 623.854 1822.02 625.42 1823.5 625.42C1827.37 625.42 1879.17 598.223 1893.11 588.878C1896.67 586.49 1900.22 584.536 1901.01 584.536C1903.9 584.536 1902.3 589.688 1897.77 594.932C1895.21 597.904 1884.92 611.622 1874.92 625.42C1842.27 670.435 1844.41 666.821 1846.69 672.944C1850.92 684.317 1852.34 684.152 1881.81 668.83C1936.7 640.3 1946.9 634.147 1946.97 629.544C1947 627.212 1945.82 624.839 1944.34 624.27C1941.62 623.227 1894.85 646.827 1876.97 658.263C1859.78 669.259 1860.07 666.211 1878.58 641.216C1920.14 585.107 1922.39 581.039 1917.23 571.405C1914.22 565.769 1908.68 567.302 1885.71 580.132ZM198.594 606.989C195.116 609.109 190.758 612.661 188.913 614.882C184.641 620.016 168.682 650.891 168.682 654.02C168.682 656.174 262.325 703.471 266.588 703.471C267.602 703.471 269.347 701.46 270.466 699.004C273.118 693.183 271.113 691.444 249.051 680.426C239.598 675.706 231.866 670.805 231.87 669.538C231.874 668.27 233.483 664.6 235.445 661.381C239.522 654.693 241.765 654.154 273.4 652.26C289.664 651.287 294.252 650.371 297.093 647.529C299.031 645.591 300.618 642.662 300.618 641.021C300.618 638.353 297.58 638.18 271.815 639.388L243.012 640.737V631.644C243.012 624.305 241.949 621.259 237.502 615.865C227.115 603.263 210.807 599.545 198.594 606.989ZM226.145 622.798C231.019 626.9 231.864 628.886 231.874 636.271C231.887 646.851 224.792 664.369 220.473 664.414C216.722 664.453 197.409 655.827 190.539 651.041C185.546 647.564 185.503 647.371 188.255 640.783C189.797 637.091 194.025 630.451 197.648 626.028C203.584 618.784 205.04 617.987 212.332 617.987C218.331 617.987 221.91 619.234 226.145 622.798ZM482.799 639.789C473.593 641.519 470.637 651.45 477.224 658.519C480.811 662.37 482.619 662.593 511.138 662.704C527.706 662.769 790.872 662.784 1095.95 662.74L1650.64 662.656L1653.89 658.7C1660.2 651.027 1657.59 642.833 1648.12 640.555C1641.31 638.917 491.466 638.161 482.799 639.789ZM148.581 704.038C146.349 706.413 144.525 708.847 144.525 709.449C144.525 710.724 144.445 710.695 188.909 726.455C225.556 739.445 232.767 743.885 234.799 754.712C236.38 763.149 230.056 776.668 222.233 781.57C213.817 786.844 208.601 785.925 171.237 772.585C128.928 757.482 130.251 757.748 127.488 763.812C124.641 770.062 124.303 769.842 152.887 780.281C198.626 796.985 205.044 798.79 213.973 797.45C226.169 795.621 233.827 789.675 240.07 777.181C248.066 761.181 247.741 747.891 239.06 735.717C233.005 727.227 231.55 726.338 214.129 720.501C203.952 717.091 187.683 711.525 177.973 708.134C151.906 699.026 153.13 699.197 148.581 704.038ZM1981.41 726.693C1980.39 727.039 1958.44 734.218 1932.63 742.645C1878.57 760.3 1882.4 756.622 1891.11 782.563C1896.72 799.258 1902.92 807.771 1914.86 815.177C1927.1 822.765 1961 818.868 1977.69 807.954C2001.66 792.282 2005.08 777.367 1993.45 739.092C1989.51 726.097 1987.94 724.485 1981.41 726.693ZM1509.54 738.57C1508.98 739.475 1505.41 740.8 1501.61 741.514C1471.32 747.198 1446.6 772.301 1433.88 810.327L1429.52 823.335L1428.99 1018.93L1428.45 1214.52H1383.91C1352 1214.52 1339.38 1215.12 1339.38 1216.62C1339.38 1218.87 1343.58 1226.29 1353.7 1241.93L1360.02 1251.69H1394.3H1428.58V1320.45V1389.2H1448.65H1468.73L1468.98 1369.23C1469.11 1358.24 1469.27 1327.3 1469.34 1300.47L1469.46 1251.69H1528.92H1588.39V1320.18V1388.67L1604.65 1389.83C1613.59 1390.48 1622.58 1390.72 1624.62 1390.39C1628.31 1389.78 1628.35 1387.98 1629.27 1148.37C1629.78 1015.59 1629.64 887.727 1628.96 864.219C1627.86 825.948 1627.25 819.981 1623.16 807.169C1618.07 791.273 1609.63 775.139 1600.49 763.857C1593.25 754.927 1572.44 743.946 1554.94 739.822C1541.86 736.739 1511.2 735.894 1509.54 738.57ZM1986.28 747.607C1990.01 757.194 1990.47 772.912 1987.21 779.222C1979.18 794.761 1949.57 807.327 1927.64 804.506C1920.02 803.525 1916.99 801.988 1911.72 796.426C1908.15 792.648 1903.65 785.59 1901.72 780.742C1898.62 772.942 1898.54 771.61 1900.98 769.166C1904.4 765.745 1972.04 742.757 1979.13 742.606C1983.09 742.523 1984.75 743.688 1986.28 747.607ZM741.602 757.932C740.803 759.224 740.552 997.128 740.976 1350.64L741.024 1391.06H761.465H781.905L782.076 1122.99C782.169 975.558 782.87 843.638 783.632 829.839C784.394 816.041 784.316 803.956 783.461 802.986C782.606 802.016 781.905 791.409 781.905 779.417C781.905 760.281 781.508 757.488 778.654 756.59C773.61 755.003 742.72 756.122 741.602 757.932ZM892.007 756.996C884.264 757.442 882.262 758.209 882.303 760.712C882.331 762.448 886.159 778.502 890.808 796.389C895.458 814.276 899.931 831.837 900.746 835.414C901.562 838.992 906.459 858.226 911.628 878.157C916.798 898.087 923.616 924.374 926.78 936.57C929.945 948.767 935.908 971.764 940.032 987.675C944.155 1003.59 950.403 1027.68 953.913 1041.22C957.425 1054.76 960.298 1068.67 960.298 1072.15C960.298 1075.62 954.864 1098.83 948.223 1123.73C941.58 1148.62 934.492 1176.62 932.472 1185.94C930.451 1195.26 927.868 1205.3 926.734 1208.24C924.43 1214.21 911.835 1262.79 896.194 1326.02C890.505 1349.02 884.466 1372.29 882.773 1377.73C878.901 1390.18 879.915 1391 899.308 1391.03C915.618 1391.07 918.589 1389.3 920.468 1378.46C922.715 1365.49 923.103 1364.02 940.689 1301.86C946.48 1281.4 959.538 1231.46 968.383 1195.94C970.037 1189.29 973.98 1174.66 977.145 1163.41C980.311 1152.17 983.349 1141.08 983.899 1138.76C985.741 1131 987.882 1132.62 990.065 1143.41C991.258 1149.3 994.611 1163.32 997.515 1174.56C1000.42 1185.81 1008.76 1218.42 1016.05 1247.04C1023.34 1275.66 1033.75 1315.8 1039.19 1336.24C1044.63 1356.68 1049.69 1376.34 1050.43 1379.91C1052.62 1390.45 1053.85 1391.06 1072.95 1391.06C1089.13 1391.06 1090.38 1390.8 1090.38 1387.35C1090.38 1385.31 1086.66 1369.21 1082.12 1351.58C1077.58 1333.94 1067.12 1293.17 1058.88 1260.98C1050.64 1228.78 1040.13 1188.64 1035.53 1171.78C1023.39 1127.3 1014.18 1082.89 1014.25 1069.25C1014.29 1061.17 1017.49 1045.27 1024.47 1018.46C1035.57 975.817 1088.41 768.291 1089.89 761.545C1090.8 757.427 1090.53 757.363 1072.24 757.363C1049.55 757.363 1053.94 749.506 1034.83 824.264C1029.74 844.195 1021.78 874.449 1017.13 891.496C1006.02 932.302 990.61 994.125 989.069 1004.06C985.812 1025.07 982.928 1015.34 930.503 806.61C924.084 781.058 918.153 759.38 917.32 758.439C915.681 756.585 907.375 756.111 892.007 756.996ZM1224.63 756.916L1129.4 757.397V776.856V796.313L1167.96 796.816L1206.52 797.318L1206.55 1091.87C1206.56 1253.87 1207.24 1387.46 1208.05 1388.74C1209.07 1390.34 1215.24 1391.06 1228 1391.06H1246.47L1246.75 1372.01C1246.91 1361.54 1247.12 1227.95 1247.22 1075.14L1247.4 797.318L1286.89 796.816L1326.37 796.315V777.056C1326.37 760.212 1325.97 757.711 1323.12 757.116C1321.33 756.741 1277.01 756.652 1224.63 756.916ZM555.154 767.12C542.817 788.253 525.086 826.037 520.05 841.919C512.301 866.356 507.272 895.551 505.009 929.265C501.359 983.585 508.343 1026.37 530.183 1083.5C537.081 1101.55 569.578 1196.08 573.945 1210.8C575.914 1217.45 578.356 1225.45 579.371 1228.59C580.385 1231.73 581.214 1243.61 581.214 1255C581.214 1276.31 577.88 1295.39 569.778 1320.45C566.002 1332.12 550.358 1365.09 542.382 1378.17C535.748 1389.05 536.023 1389.2 562.429 1389.2H586.384L593.891 1372.01C606.996 1342.01 613.087 1321.23 617.415 1291.8C623.257 1252.04 620.449 1205.78 610.582 1179.21C608.493 1173.59 603.941 1161.04 600.466 1151.33C593.391 1131.58 587.45 1116 583.808 1107.66C557.401 1047.24 544.049 992.531 544.049 944.764C544.049 893.973 569.479 821.172 603.205 775.412C607.133 770.086 611.346 763.844 612.568 761.545L614.793 757.363H587.82H560.848L555.154 767.12ZM1558.86 787.458C1574.06 794.417 1582.34 806.517 1586.4 827.732C1588.51 838.789 1588.9 902.837 1588.46 1171.31L1588.39 1214.52H1528.26H1468.13L1468.38 1024.5C1468.65 821.596 1468.54 824.156 1477.85 805.681C1483.09 795.289 1486.32 792.34 1499.2 786.192C1508.61 781.699 1510.93 781.372 1528.93 782.005C1545 782.57 1550.3 783.535 1558.86 787.458ZM173.328 826.271C160.041 828.094 142.397 829.642 134.117 829.711C113.834 829.884 107.794 832.131 106.308 840.062C105.67 843.461 105.646 847.81 106.254 849.728C106.867 851.658 115.023 857.393 124.548 862.589C134.003 867.746 151.737 878.053 163.956 885.493C195.153 904.486 201.859 907.602 204.057 904.127C207.231 899.108 205.918 896.701 197.02 891.232C179.374 880.381 180.532 883.336 185.44 861.682C188.173 849.631 190.836 842.073 192.692 841.097C194.305 840.25 200.815 838.966 207.157 838.243C219.581 836.825 223.203 834.298 222.25 827.708C221.696 823.88 220.585 823.489 209.564 823.237C202.92 823.084 186.614 824.45 173.328 826.271ZM1992.56 842.967C1979.27 845.938 1957.23 850.478 1943.58 853.056C1929.92 855.633 1917.93 858.254 1916.92 858.878C1914.79 860.194 1915.36 864.808 1920.81 890.236C1925.5 912.153 1927.42 917.182 1931.09 917.182C1935.94 917.182 1936.04 913.989 1931.79 893.235C1929.5 881.992 1928.14 872.269 1928.78 871.628C1930.41 870 1957.76 863.29 1962.77 863.29C1966.45 863.29 1967.35 865.208 1971.09 880.944C1974.69 896.09 1975.82 898.598 1979.07 898.598C1983.1 898.598 1983.12 896.344 1979.36 868.653L1978.19 860.078L1991.88 856.929C1999.41 855.195 2007.06 853.479 2008.88 853.117C2013.33 852.229 2016.92 858.276 2019.36 870.723C2023.35 891.174 2024.29 893.928 2027.48 894.544C2029.23 894.88 2031.08 894.049 2031.59 892.696C2032.1 891.343 2030.22 878.534 2027.41 864.232C2023.65 845.141 2021.55 838.139 2019.5 837.895C2017.97 837.713 2005.84 839.995 1992.56 842.967ZM178.663 844.063C176.708 856.851 171.659 874.432 169.949 874.403C168.741 874.384 162.317 871.059 155.674 867.018C149.031 862.976 138.394 856.971 132.037 853.675C114.308 844.479 115.27 843.387 142.33 841.995C155.29 841.328 167.149 840.562 168.682 840.296C172.434 839.644 178.962 842.108 178.663 844.063ZM95.346 893.488C94.5636 895.913 89.7377 928.633 86.6679 952.325C84.7985 966.742 85.657 969.121 92.7462 969.188C94.9761 969.208 96.106 966.858 96.9775 960.389C97.6316 955.535 98.6443 948.386 99.226 944.505L100.283 937.449L108.932 938.629C113.689 939.28 122.179 940.558 127.8 941.473C133.422 942.387 148.473 944.425 161.249 946.003C174.024 947.581 185.83 949.289 187.484 949.8C189.138 950.309 192.748 949.869 195.51 948.819C199.241 947.401 200.378 945.84 199.936 942.746C199.391 938.919 197.385 938.261 175.186 934.63C161.899 932.458 140.615 929.259 127.888 927.524C115.159 925.788 104.046 923.935 103.19 923.406C102.333 922.878 102.169 920.756 102.825 918.691C105.475 910.34 106.67 894.936 104.812 893.077C102.158 890.424 96.2491 890.682 95.346 893.488ZM2036.69 972.304C2035.1 972.947 2034.37 978.032 2034.37 988.5V1003.76L1997.67 1006.04C1977.48 1007.29 1957.06 1008.3 1952.29 1008.28C1940.17 1008.23 1937.74 1009.53 1937.74 1016.12V1021.74L1986.98 1020.37L2036.23 1019.01L2036.41 1028.96C2036.67 1042.77 2038.45 1048.09 2043.03 1048.76C2048.5 1049.55 2048.79 1046.86 2046.99 1011.03C2044.92 969.621 2044.77 969.045 2036.69 972.304ZM151.029 991.5C141.826 995.48 134.091 1005.72 126.836 1023.52C120.862 1038.18 118.385 1042.17 113.696 1044.7C106.837 1048.39 99.8541 1047.17 94.4039 1041.32C89.2472 1035.78 89.2212 1019.24 94.3518 1009.17C98.8023 1000.44 99.0829 995.506 95.2122 994.019C91.6016 992.635 85.4619 998.108 82.3958 1005.45C74.8457 1023.52 78.1887 1044.72 90.1466 1054.58C95.8384 1059.27 98.7113 1060.28 106.44 1060.28C123.147 1060.28 128.157 1054.58 143.564 1018.1C148.46 1006.5 162.031 1002.72 172.346 1010.06C182.258 1017.12 183.258 1038.51 174.357 1053.11C172.265 1056.54 170.551 1060.36 170.548 1061.6C170.538 1064.65 177.038 1067.95 180.454 1066.64C185.278 1064.79 191.323 1047.41 192.349 1032.45C193.159 1020.63 192.698 1017.12 189.532 1010.96C180.868 994.105 164.332 985.748 151.029 991.5ZM1939.6 1082.54C1939.6 1089.17 1940.33 1089.38 1967.06 1090.75C1977.57 1091.28 1986.98 1092.22 1987.97 1092.83C1989.92 1094.04 1990.07 1126.54 1988.15 1135.45L1986.98 1140.94L1969.33 1140.24C1934.99 1138.88 1935 1138.88 1934.48 1142.97C1933.47 1150.82 1935.62 1151.37 1977.84 1154.15C2000.25 1155.63 2023.17 1157.34 2028.79 1157.95C2041.31 1159.31 2046.71 1156.34 2044.9 1149.1C2043.85 1144.94 2042.5 1144.31 2032.27 1143.24C2025.97 1142.58 2015.92 1142.04 2009.94 1142.04H1999.06L1999.08 1127.64C1999.1 1108.45 2000.94 1094.09 2003.49 1093.24C2004.63 1092.85 2013.93 1093.12 2024.15 1093.84C2044.6 1095.29 2049.23 1094.07 2049.23 1087.24C2049.23 1083.59 2048.09 1082.57 2043.19 1081.83C2036.13 1080.77 1961.34 1076.93 1948.42 1076.97C1939.87 1077 1939.6 1077.17 1939.6 1082.54ZM180.712 1107.45C181.441 1120.1 181.333 1130.88 180.471 1131.4C179.608 1131.91 170.54 1132.64 160.32 1133.01L141.737 1133.68L141.364 1129.03C138.532 1093.73 138.859 1095.34 134.6 1095.94C130.796 1096.48 130.588 1097.47 130.588 1115.05V1133.58L123.155 1134.92C119.067 1135.65 110.571 1136.3 104.275 1136.36L92.828 1136.47L91.6406 1120.21C90.9883 1111.26 90.2859 1101.86 90.0797 1099.3C89.7898 1095.68 88.6767 1094.65 85.0605 1094.65C80.6862 1094.65 80.4316 1095.2 80.7011 1103.95C81.4648 1128.79 83.6854 1149.26 85.6886 1149.94C86.8761 1150.35 111.262 1149.36 139.879 1147.75L191.91 1144.83L191.399 1122.53C191.117 1110.27 190.438 1096.67 189.89 1092.33C189.011 1085.36 188.339 1084.43 184.139 1084.43H179.384L180.712 1107.45ZM174.26 1185.84C163.531 1195.48 153.877 1203.37 152.809 1203.37C151.74 1203.37 147.693 1200.02 143.817 1195.93C135.724 1187.39 131.26 1185.84 118.347 1187.08C108.448 1188.03 101.761 1192.66 96.9626 1201.88C92.2204 1211 94.9576 1254.22 100.573 1258.89C101.906 1259.99 105.912 1260.04 111.082 1259.03C115.677 1258.12 126.964 1256.07 136.163 1254.46C207.655 1241.98 207.705 1241.96 207.705 1235.82C207.705 1231.76 206.914 1231.25 200.737 1231.28C196.905 1231.31 186.482 1232.42 177.577 1233.76C168.673 1235.1 160.392 1235.58 159.177 1234.83C157.962 1234.08 156.886 1229.55 156.785 1224.77C156.626 1217.15 157.287 1215.59 162.178 1212.06C165.244 1209.84 174.024 1203 181.69 1196.84C195.149 1186.03 195.645 1185.35 196.193 1176.86C196.504 1172.02 196.086 1168.12 195.264 1168.18C194.441 1168.25 184.99 1176.2 174.26 1185.84ZM1929.36 1188.95C1927.23 1194.91 1921.15 1240.58 1922.15 1243.18C1922.77 1244.79 1924.76 1246.11 1926.58 1246.11C1930.08 1246.11 1930.09 1246.08 1934.14 1219.85C1935.34 1212.05 1936.87 1204.78 1937.54 1203.69C1938.39 1202.32 1941.3 1202.29 1947.08 1203.59C1951.65 1204.62 1959.99 1206.06 1965.61 1206.79L1975.83 1208.11L1975.02 1218.28C1974.57 1223.88 1974.16 1232.64 1974.09 1237.75C1973.99 1245.94 1974.46 1247.11 1978.05 1247.62C1982.44 1248.24 1982.74 1247.33 1985.1 1226.11C1986.61 1212.49 1987.55 1210.8 1993.59 1210.8C2002.31 1210.8 2017.51 1214.65 2020.46 1217.6C2023.75 1220.89 2024.05 1232.78 2021.16 1246.22C2019.44 1254.26 2019.57 1256.26 2021.95 1258.65C2026.04 1262.74 2030.65 1260.23 2030.65 1253.92C2030.65 1250.99 2032.31 1239.47 2034.34 1228.31C2036.37 1217.15 2038.04 1207.45 2038.06 1206.77C2038.1 1204.66 2027 1201.91 2005.57 1198.7C1994.32 1197.01 1978.85 1194.1 1971.19 1192.23C1952.13 1187.57 1930.47 1185.87 1929.36 1188.95ZM138.857 1204.85C145.35 1211.34 151.777 1238.59 146.847 1238.71C146.08 1238.73 137.107 1239.93 126.905 1241.38C113.011 1243.35 108.023 1243.47 107.033 1241.86C104.654 1238.02 103.199 1216.78 104.946 1211.41C107.04 1204.96 116.783 1199.66 126.55 1199.66C131.861 1199.65 134.977 1200.97 138.857 1204.85ZM2049.24 1222.28C2049.24 1225.79 2054.81 1252.04 2055.94 1253.87C2056.46 1254.72 2058.51 1255.4 2060.49 1255.4C2065.39 1255.4 2065.17 1248.54 2059.79 1233.11C2057.11 1225.42 2054.43 1220.82 2052.41 1220.43C2050.66 1220.1 2049.23 1220.93 2049.24 1222.28ZM476.061 1471.89C472.48 1477.35 473.749 1484.88 478.694 1487.53C483.817 1490.27 1635.75 1492.32 1645.82 1489.6C1655.54 1486.98 1658.56 1480.97 1654.3 1472.73L1651.47 1467.26H1065.28H479.096L476.061 1471.89ZM831.348 1557.54C829.598 1562.1 830.023 1572.38 832.848 1593.78C839.513 1644.25 864.098 1694.66 897.794 1726.93C942.167 1769.44 985.475 1789.76 1045.41 1796.19C1066.88 1798.5 1082.67 1797.57 1109.89 1792.39C1160.41 1782.78 1199.23 1761.37 1238.4 1721.51C1254.94 1704.69 1256.31 1703.75 1286.72 1688.68C1322.24 1671.06 1334.54 1663.48 1342.74 1654.14C1354.07 1641.24 1353.91 1628.29 1342.26 1614.67C1334.22 1605.28 1323.63 1601.89 1307.53 1603.58C1296.52 1604.73 1296.27 1604.66 1297.27 1600.58C1297.84 1598.29 1298.88 1587.93 1299.58 1577.56C1300.79 1559.73 1300.66 1558.6 1297.02 1556.66C1294.26 1555.18 1227.77 1554.6 1062.82 1554.6C854.491 1554.6 832.368 1554.88 831.348 1557.54ZM970.988 1571.97C972.709 1573.03 973.32 1582.82 973.363 1609.99C973.395 1630.12 974.214 1652.71 975.186 1660.19C979.679 1694.79 1000.72 1742.08 1022.08 1765.61C1026.94 1770.96 1030.91 1775.84 1030.91 1776.47C1030.91 1779.73 998.056 1772.06 991.009 1767.15C988.995 1765.74 986.068 1764.59 984.505 1764.59C982.944 1764.59 976.394 1762.09 969.946 1759.04C908.215 1729.84 862.442 1667.69 849.585 1595.62C845.441 1572.4 845.605 1571.63 854.842 1570.96C871.44 1569.76 968.783 1570.61 970.988 1571.97ZM1134.88 1572.34C1138.95 1576.42 1140.95 1596.78 1140.07 1625.22C1139.35 1648.31 1138.2 1657.81 1134.23 1673.16C1128.87 1693.93 1120.24 1717.11 1114.03 1727.42C1099.77 1751.13 1072.73 1779.46 1064.37 1779.46C1059.62 1779.46 1038.57 1760.65 1027.97 1746.94C1017.63 1733.55 1004.88 1708.77 999.693 1691.96C997.613 1685.22 994.074 1668.92 991.823 1655.72C988.452 1635.93 987.9 1627.12 988.679 1605.49C989.199 1591.07 990.573 1577.5 991.732 1575.33C993.772 1571.52 995.242 1571.37 1037 1570.77C1106.04 1569.79 1132.76 1570.22 1134.88 1572.34ZM1278.04 1570.67L1284.06 1571.87L1282.84 1585.07C1279.88 1617.03 1266.24 1655.22 1247.92 1682.82C1228.41 1712.23 1190.7 1745.42 1160.99 1759.33C1147.65 1765.57 1115.65 1776.41 1104.78 1778.37C1095.46 1780.05 1095.8 1777.8 1106.82 1764.91C1119.92 1749.59 1126.81 1738.75 1135.9 1719.18C1151.58 1685.39 1158.49 1646.43 1156.6 1602.57C1155.99 1588.58 1155.27 1576.04 1154.99 1574.7C1154.59 1572.74 1165.37 1572.06 1209.3 1571.28C1239.45 1570.75 1265.9 1570.12 1268.07 1569.89C1270.24 1569.65 1274.73 1570.01 1278.04 1570.67ZM1327.77 1623.34C1332.8 1626.4 1333.81 1628.15 1333.81 1633.76C1333.81 1639.11 1332.45 1641.76 1327.25 1646.52C1320.24 1652.93 1285.27 1672.58 1277.28 1674.59C1271.55 1676.03 1271.36 1674.89 1276.02 1667.25C1277.97 1664.06 1282.18 1653.97 1285.39 1644.82C1291.68 1626.89 1293.54 1623.77 1299.36 1621.41C1306.61 1618.47 1321.44 1619.48 1327.77 1623.34ZM405.609 1728.41C401.521 1729.88 397.998 1731.1 397.779 1731.11C397.559 1731.13 395.261 1734.26 392.668 1738.08C386.51 1747.14 386.014 1763.48 391.68 1770.68C400.763 1782.23 416.281 1785.09 429.627 1777.67C448.215 1767.34 447.13 1738.59 427.8 1729.23C418.911 1724.93 415.608 1724.8 405.609 1728.41ZM1716.54 1729.75C1710.76 1732.66 1706.9 1736.39 1703.81 1742.03C1699.72 1749.52 1699.55 1750.86 1701.57 1759.9C1704.76 1774.17 1713.7 1781.32 1728.35 1781.32C1741.77 1781.32 1750.45 1774.85 1756.51 1760.35C1759.79 1752.5 1758.58 1747.26 1751.19 1737.26C1742.09 1724.94 1730.89 1722.51 1716.54 1729.75ZM1530.78 1802.78C1514.36 1813.33 1509.51 1817.35 1509.83 1820.17C1510.4 1825.05 1561.81 1907.83 1565.82 1910.3C1568.06 1911.69 1614.4 1879.87 1614.4 1876.95C1614.4 1870.89 1608.46 1872.54 1591.24 1883.39C1581.39 1889.6 1572.65 1894.68 1571.82 1894.68C1570.15 1894.68 1551.21 1864.52 1551.25 1861.93C1551.26 1861.03 1557.55 1856.21 1565.23 1851.21C1572.91 1846.22 1579.56 1841.53 1580.02 1840.8C1580.47 1840.07 1579.73 1837.96 1578.37 1836.1C1576 1832.85 1575.7 1832.87 1570.53 1836.45C1567.58 1838.49 1560.4 1842.85 1554.58 1846.13L1544 1852.09L1537.11 1841.33C1533.32 1835.41 1529.09 1827.86 1527.7 1824.56C1524.88 1817.82 1522.83 1819.83 1549.89 1802.88C1559.4 1796.93 1560.4 1795.73 1558.65 1792.45C1557.56 1790.42 1555.65 1788.82 1554.41 1788.9C1553.17 1788.98 1542.54 1795.22 1530.78 1802.78ZM573.32 1804.08C569.801 1809.45 560.894 1823.74 553.528 1835.84C546.16 1847.94 535.99 1863.12 530.926 1869.56C525.86 1876.01 522.164 1882.41 522.711 1883.8C523.257 1885.18 530.999 1891.01 539.916 1896.74C564.925 1912.83 569.769 1915.45 573.298 1914.77C579.932 1913.49 576.191 1908.37 561.702 1898.89C536.664 1882.51 538.681 1885.15 544.846 1876.81C552.036 1867.09 562.987 1855.65 565.103 1855.65C566.047 1855.65 573.023 1858.67 580.603 1862.37C593.876 1868.84 594.517 1868.97 598.02 1865.8C600.02 1863.99 601.655 1861.9 601.655 1861.15C601.655 1860.41 596.848 1857.9 590.97 1855.58C573.933 1848.84 567.729 1841.44 571.999 1832.96C577.167 1822.7 586.103 1811.06 588.818 1811.05C590.446 1811.05 598.39 1815.47 606.471 1820.86C619.065 1829.27 621.33 1831.6 622.315 1837.12C622.947 1840.67 623.588 1842.32 623.738 1840.78C623.98 1838.31 624.21 1838.31 625.812 1840.78C627.26 1843.03 627.618 1842.73 627.643 1839.27C627.657 1836.9 628.509 1833.4 629.534 1831.48C630.982 1828.78 630.462 1826.94 627.211 1823.3C622.659 1818.18 585.343 1794.35 581.859 1794.34C580.681 1794.33 576.838 1798.72 573.32 1804.08ZM1455.52 1845.61C1419.76 1863.38 1422.17 1861.9 1421.48 1866.54C1420.52 1873 1425.7 1873.13 1438.73 1866.97C1445.42 1863.81 1451.28 1861.23 1451.77 1861.23C1452.25 1861.23 1462.32 1880.46 1474.14 1903.97C1486.51 1928.55 1496.72 1946.71 1498.19 1946.71C1502.66 1946.71 1506.62 1944.53 1506.62 1942.09C1506.62 1940.79 1497.43 1921.12 1486.18 1898.39C1474.94 1875.66 1465.74 1856.07 1465.74 1854.86C1465.74 1853.65 1471.6 1849.82 1478.75 1846.36C1485.9 1842.9 1491.76 1839.75 1491.76 1839.37C1491.76 1836.89 1487.52 1831.51 1485.65 1831.62C1484.41 1831.7 1470.85 1837.99 1455.52 1845.61ZM584.386 1837.05C584.918 1839.08 586.094 1840.28 587.001 1839.73C589.625 1838.1 588.905 1833.35 586.034 1833.35C584.34 1833.35 583.76 1834.65 584.386 1837.05ZM647.697 1844.97C640.645 1850.46 635.103 1861.7 635.103 1870.52C635.103 1880.92 639.877 1888.95 654.624 1903.36C661.994 1910.56 664.765 1914.78 665.676 1920.17C668.035 1934.13 659.98 1943 644.952 1942.99C636.016 1942.98 626.979 1937.7 617.238 1926.8C611.946 1920.88 608.657 1918.6 606.553 1919.41C597.559 1922.86 611.981 1941.61 630.387 1950.39C643.163 1956.49 648.546 1957.13 659.445 1953.87C671.343 1950.3 677.637 1943.52 680.079 1931.63C682.868 1918.04 680.646 1912.62 665.724 1896.64C646.004 1875.51 643.971 1869.61 653.324 1860.64C659.313 1854.91 669.184 1853.96 677.611 1858.32C683.249 1861.23 696.426 1874.99 696.426 1877.96C696.426 1881.24 701.241 1879.93 705.394 1875.51C707.616 1873.14 709.434 1870.65 709.434 1869.98C709.434 1867.36 681.861 1848.16 674.249 1845.47C664.529 1842.04 651.763 1841.8 647.697 1844.97ZM625.349 1854.68C626.026 1858.21 626.868 1859.06 628.297 1857.63C629.727 1856.2 629.456 1854.78 627.351 1852.68C624.658 1849.99 624.485 1850.16 625.349 1854.68ZM734.496 1879.35C726.399 1898.85 702.001 1970.6 702.001 1974.9C702.001 1978.65 710.183 1984.78 712.925 1983.09C713.914 1982.48 715.252 1979.27 715.898 1975.96C716.547 1972.65 718.827 1965.07 720.968 1959.11C724.326 1949.77 725.394 1948.42 728.761 1949.32C760.898 1957.9 770.236 1957.67 780.752 1948C802.285 1928.22 798.656 1903.35 772.267 1889.89C763.397 1885.36 739.896 1876.09 737.285 1876.09C736.493 1876.09 735.239 1877.56 734.496 1879.35ZM1381.71 1877.77C1371.56 1879.88 1357.93 1889.09 1353.98 1896.51C1352.08 1900.07 1350.53 1906.51 1350.53 1910.83C1350.53 1917.36 1351.7 1919.9 1357.5 1925.98C1366.32 1935.23 1375.1 1937.75 1393.27 1936.26C1411.16 1934.79 1420.04 1938.04 1424 1947.51C1428.25 1957.7 1427.43 1963.1 1420.57 1969.96C1413.62 1976.91 1402.59 1980.56 1389.81 1980.12C1377.05 1979.69 1376.55 1979.83 1376.55 1983.92C1376.55 1993.1 1399.31 1993.08 1418.36 1983.89C1433.69 1976.49 1440.32 1966.58 1439.24 1952.67C1438.43 1942.23 1434.76 1935.71 1426 1929.17C1421.67 1925.93 1417.08 1925.16 1396.39 1924.17C1382.92 1923.53 1371.72 1922.9 1371.51 1922.78C1367.71 1920.61 1363.54 1913.14 1363.54 1908.51C1363.54 1895.66 1375.66 1887.24 1394.17 1887.24C1403.56 1887.24 1406.65 1886.57 1407.51 1884.33C1408.13 1882.73 1407.86 1880.65 1406.91 1879.7C1404.43 1877.22 1389.77 1876.1 1381.71 1877.77ZM775.842 1905.71C778.156 1909.14 780.047 1914.38 780.047 1917.35C780.047 1928.07 769.533 1942.99 761.972 1942.99C753.311 1942.99 731.733 1937.13 731.733 1934.77C731.733 1931.53 737.843 1914.45 743.505 1901.87L748.214 1891.4L759.926 1895.44C768.769 1898.48 772.666 1901 775.842 1905.71ZM1293.97 1907.7C1279.73 1911.39 1267.75 1915.39 1267.35 1916.59C1266.94 1917.8 1270.41 1932.8 1275.04 1949.94C1279.67 1967.07 1285.19 1987.78 1287.32 1995.96C1292.55 2016.12 1294.7 2021.05 1298.26 2021.02C1303.79 2020.98 1351.32 2006.61 1351.92 2004.8C1352.25 2003.82 1351.2 2001.93 1349.59 2000.59C1347.18 1998.59 1344.17 1998.69 1332.34 2001.18C1309.76 2005.92 1306.21 2006.26 1304.61 2003.79C1302.29 2000.21 1294.88 1972.21 1295.84 1970.66C1296.32 1969.89 1304.22 1966.96 1313.4 1964.15C1326.43 1960.17 1330.09 1958.3 1330.09 1955.67C1330.09 1951.37 1325.35 1951.31 1306.9 1955.36C1299.19 1957.06 1292.35 1957.91 1291.69 1957.25C1291.04 1956.59 1288.6 1948.93 1286.27 1940.23C1281.26 1921.47 1281.67 1920.65 1297.83 1917.17C1321.44 1912.09 1322.66 1911.58 1322.66 1906.79C1322.66 1904.34 1322.03 1902.03 1321.26 1901.66C1320.5 1901.29 1308.22 1904.01 1293.97 1907.7ZM829.861 1918.27C807.044 1950.13 776.331 1999.97 776.331 2005.14C776.331 2007.09 778.079 2008.04 781.684 2008.04C787.25 2008.04 794.124 2001.02 798.968 1990.38C801.038 1985.84 801.911 1985.49 808.536 1986.55C821.139 1988.56 838.45 1995.06 841.834 1999.04C843.927 2001.51 845.086 2005.99 845.086 2011.6C845.086 2021.54 847.598 2025.68 854.615 2027.3L859.499 2028.44L858.859 2006.44C858.51 1994.34 857.358 1975.32 856.301 1964.18C855.245 1953.04 854.379 1937.47 854.379 1929.59C854.377 1913.98 853.818 1913.12 842.065 1910.6C836.709 1909.45 835.752 1910.05 829.861 1918.27ZM1221.56 1925.43C1219.46 1927.53 1218.81 1930.33 1219.5 1934.35C1222.55 1952.11 1229.83 1991.34 1233.62 2010.44C1237.86 2031.87 1238.06 2032.35 1242.68 2031.82C1246.3 2031.39 1247.54 2030.06 1247.99 2026.06C1248.55 2021.2 1241.04 1975.1 1233.84 1939.29C1230.49 1922.57 1227.63 1919.35 1221.56 1925.43ZM842.035 1931.38C843.774 1941.9 843.456 1981.66 841.624 1982.79C839.656 1984.01 815.685 1977.52 813.288 1975.12C812.225 1974.06 813.791 1969.17 817.37 1962.37C831.194 1936.16 838.012 1924.41 839.398 1924.41C840.216 1924.41 841.401 1927.55 842.035 1931.38ZM918.34 1930.12C911.049 1932.24 898.189 1945.18 893.263 1955.36C885.027 1972.37 883.996 2008.19 891.392 2020.35C893.206 2023.33 899.392 2029.01 905.136 2032.97C917.235 2041.3 928.432 2043.26 943.427 2039.66C953.779 2037.18 955.498 2035.71 953.9 2030.67C952.978 2027.77 950.67 2027.34 936.59 2027.44C916.716 2027.58 910.004 2025.07 905.533 2015.83C901.092 2006.65 899.771 1986.49 902.707 1972.66C905.39 1960.01 913.059 1946.67 920.41 1941.85C927.557 1937.17 940.974 1937.47 950.6 1942.53C960.404 1947.68 965.873 1947.95 965.873 1943.28C965.873 1932.28 937.744 1924.49 918.34 1930.12ZM1143.34 1933.89C1136.97 1935.85 1131.63 1940.03 1127.02 1946.66C1123.31 1951.99 1122.72 1967.17 1125.97 1973.32C1130.96 1982.72 1143.14 1989.19 1161.92 1992.4C1178.21 1995.18 1185.15 2001.35 1185.15 2013.06C1185.15 2020.34 1184.23 2022.4 1178.63 2027.68C1169.64 2036.16 1159.05 2037.64 1143.7 2032.55C1134.09 2029.37 1131.76 2029.15 1129.64 2031.22C1126.2 2034.58 1128.4 2037.5 1137.53 2041.64C1146.98 2045.93 1164.61 2046.28 1175.99 2042.4C1197.26 2035.14 1205.67 2013.88 1194.51 1995.58C1189.83 1987.91 1183.97 1985 1161.62 1979.25C1149.42 1976.11 1142.25 1973.25 1140.08 1970.64C1136.53 1966.37 1135.78 1955.87 1138.65 1950.5C1142.4 1943.5 1161.52 1940.78 1176.16 1945.16C1184.94 1947.79 1188.52 1945.59 1185.3 1939.56C1181.64 1932.72 1157.68 1929.48 1143.34 1933.89ZM992.958 1941.83C991.868 1949.11 987.793 2045.47 988.547 2046.14C988.852 2046.41 1002.06 2046.94 1017.9 2047.31L1046.71 2047.99L1047.29 2042.88L1047.88 2037.77L1029.64 2037.74C1009.87 2037.72 1003.68 2036.72 1002.6 2033.4C1002.22 2032.23 1002.24 2023.53 1002.66 2014.08L1003.41 1996.89H1022.73C1041.88 1996.89 1042.06 1996.84 1042.06 1992.44C1042.06 1988.14 1041.47 1987.95 1023.42 1986.66L1004.77 1985.33L1005.3 1966.48L1005.83 1947.64L1027.39 1948.31C1048.05 1948.96 1048.99 1948.83 1049.98 1945.06C1050.54 1942.9 1050.19 1940.64 1049.2 1940.03C1048.21 1939.41 1038.88 1938.55 1028.47 1938.11C1018.06 1937.67 1006.01 1937.02 1001.68 1936.67C994.137 1936.05 993.793 1936.25 992.958 1941.83Z" fill="#353642"/>
</svg>
