<svg width="4100" height="913" viewBox="0 0 4100 913" fill="none" xmlns="http://www.w3.org/2000/svg">
<g clip-path="url(#clip0_57_163)">
<path d="M549.988 181.502V324.994H372.819V895.928H182.327V324.994H5.25195V181.502H549.988Z" fill="#353642"/>
<path d="M883.209 164.817C661.445 164.817 527.275 303.998 527.275 539.327C527.275 775.081 660.465 912.606 883.209 912.606C1105.28 912.606 1238.37 775.081 1238.37 539.327C1238.37 303.998 1105.28 164.817 883.209 164.817ZM883.209 311.587C976.749 311.587 1043.74 396.558 1043.74 538.388C1043.74 681.251 977.735 766.182 883.209 766.182C788.919 766.182 722.023 681.251 722.023 538.388C722.023 395.578 790 311.587 883.209 311.587Z" fill="#353642"/>
<path d="M1472.61 181.502V755.072H1764.99V895.928H1282.09V181.502H1472.61Z" fill="#353642"/>
<path d="M1983.94 181.502V755.072H2276.32V895.928H1793.42V181.502H1983.94Z" fill="#353642"/>
<path d="M2805.8 181.33V318.422H2494.89V462.3H2788.29V598.338H2494.89V758.069H2815.93V895.925H2304.6V181.33H2805.8Z" fill="#353642"/>
<path d="M3109.9 181.502L3338.19 643.239C3354.42 675.615 3350.4 676.102 3350.4 648.361V181.502H3522.66V895.928H3285.63L3044.68 418.669C3036.35 399.605 3039.93 403.234 3039.93 426.19V895.928H2867.67V181.502H3109.9Z" fill="#353642"/>
<path d="M4045.41 337.731C3987.86 313.038 3934.45 306.267 3884.06 306.267C3804.74 306.267 3761.68 327.459 3761.68 369.418C3761.68 399.3 3789.12 424.553 3833.33 438.832C3914.57 465.532 3979.7 478.06 4025.95 512.889C4076.23 551.928 4100 603.456 4100 670.228C4100 825.553 3989.93 912.355 3789.48 912.355C3720.33 912.355 3646.07 896.056 3571.7 875.438L3588.33 715.788C3658.49 747.651 3723.63 761.788 3777.16 761.788C3853.3 761.788 3899.46 737.886 3899.46 690.765C3899.46 637.312 3844.7 626.107 3756.47 596.353C3618.95 549.948 3566.64 493.684 3566.64 387.9C3566.64 246.171 3670.94 164.816 3864.52 164.816C3933.37 164.816 3998.15 172.986 4059.63 190.569L4045.41 337.731Z" fill="#353642"/>
</g>
<defs>
<clipPath id="clip0_57_163">
<rect width="4100" height="913" fill="white"/>
</clipPath>
</defs>
</svg>
