<svg width="3812" height="913" viewBox="0 0 3812 913" fill="none" xmlns="http://www.w3.org/2000/svg">
<g clip-path="url(#clip0_53_142)">
<path fill-rule="evenodd" clip-rule="evenodd" d="M1423.7 79.1231V158.146H1502.75H1581.8V79.1231V0.100586H1502.75H1423.7V79.1231ZM1669.64 447.895V895.689H1757.47H1845.31L1845.89 794.716C1846.31 722.331 1855.81 682.557 1879.46 654.232C1897.59 632.492 1916.4 614.72 1921.25 614.72C1926.1 614.72 1966.54 677.938 2011.12 755.205L2092.19 895.689H2179.55C2227.6 895.689 2266.91 892.195 2266.91 887.927C2266.91 883.643 2215.05 791.502 2151.65 683.136L2036.4 486.124L2142.87 378.724C2201.44 319.668 2249.34 265.634 2249.34 258.645C2249.34 251.656 2206.5 245.948 2154.13 245.948H2058.9L1952.11 364.236L1845.31 482.524V241.312V0.100586H1757.47H1669.64V447.895ZM2916.88 447.895V895.689H2995.93H3074.98V447.895V0.100586H2995.93H2916.88V447.895ZM1027.03 246.721C997.251 255.659 958.481 278.91 940.861 298.367C897.893 345.833 879.131 342.935 879.131 288.849C879.131 246.862 874.248 244.28 804.472 249.338L729.813 254.729L725.018 575.209L720.24 895.689H806.703H893.167L899.333 665.839C905.183 447.403 907.59 434.285 948.046 401.553C976.627 378.408 1011.09 368.837 1053.04 372.385C1144.3 380.094 1159.64 424.294 1159.94 680.572L1160.2 895.689H1246.07H1331.93L1324.64 628.488C1317.12 352.629 1304.88 303.319 1234.54 265.687C1183.53 238.397 1084.79 229.371 1027.03 246.721ZM2460.15 243.753C2378.41 260.98 2312.18 306.339 2286.53 362.603C2275.01 387.873 2267.86 410.561 2270.65 413.037C2273.43 415.513 2308.7 422.994 2349.04 429.65C2412.22 440.08 2425.06 436.709 2441.88 405.311C2469.98 352.804 2605.33 353.279 2642.28 406.013C2682.35 463.208 2660.6 485.808 2543.25 508.883C2383.47 540.316 2304.2 577.158 2275.03 633.58C2234.96 711.022 2242.98 782.652 2298.69 844.992C2365.55 919.765 2490.25 934.445 2596.89 880.06C2683.45 835.913 2688.51 835.334 2688.51 869.348C2688.51 889.227 2709.93 895.689 2775.91 895.689C2862.48 895.689 2863.15 895.25 2846.18 850.646C2836.76 825.868 2829.05 716.413 2829.05 607.415C2829.05 380.831 2810.09 307.902 2742.06 272.728C2681.33 241.33 2540.3 226.843 2460.15 243.753ZM3375.78 245.334C3159.69 298.718 3058.12 583.691 3186.39 776.752C3263.76 893.196 3467.64 947.827 3607.22 889.525C3736.13 835.685 3827.02 665.365 3805.03 518.822C3775.62 322.776 3576.32 195.795 3375.78 245.334ZM1423.7 570.819V895.689H1502.75H1581.8V570.819V245.948H1502.75H1423.7V570.819ZM3538.84 388.874C3625.74 428.455 3663.26 583.48 3610.6 685.314C3534.83 831.751 3331.46 788.482 3309.01 621.13C3285.31 444.453 3401.97 326.534 3538.84 388.874ZM2662.55 663.012C2647.64 742.825 2632.51 762.598 2565.07 790.519C2521.42 808.589 2505.98 807.43 2469.03 783.231C2419.25 750.621 2410.45 683.786 2451.47 649.754C2480.05 626.047 2566.71 601.848 2633.37 598.951C2671.97 597.283 2674 601.743 2662.55 663.012Z" fill="#353642"/>
<path fill-rule="evenodd" clip-rule="evenodd" d="M5.60382 525.548C10.9793 793.592 12.9643 807.026 53.8247 850.454C137.25 939.134 288.254 943.472 394.129 860.217L439.083 824.885L444.722 864.678C450.87 907.947 501.919 923.962 575.138 905.594L617.263 895.022V570.485V245.949H520.645H424.028V455.534C424.028 570.802 416.79 684.155 407.937 707.423C386.259 764.424 299.725 800.248 249.115 773.169C191.355 742.28 178.092 682.926 178.092 455.534V245.949H89.0462H0L5.60382 525.548Z" fill="#76777F"/>
</g>
<defs>
<clipPath id="clip0_53_142">
<rect width="3812" height="913" fill="white"/>
</clipPath>
</defs>
</svg>
