<svg width="4957" height="913" viewBox="0 0 4957 913" fill="none" xmlns="http://www.w3.org/2000/svg">
<g clip-path="url(#clip0_57_173)">
<path d="M3207.78 382.034C3163.24 341.496 3108.88 320.945 3046.19 320.945H2508.28V913.154H2699.65V752.761H3046.19C3109.19 752.761 3163.56 732.366 3207.78 692.137C3252.98 650.974 3275.73 600.966 3275.39 543.645C3275.73 485.542 3252.97 422.857 3207.78 382.034ZM3033.05 591.38H2699.65V483.269H3033.05C3063.01 483.269 3087.26 507.623 3087.12 537.573C3086.99 567.325 3062.82 591.38 3033.05 591.38ZM3554.69 320.945L3177.75 913.154H3387.82L3465.27 792.025H3816.47L3892.98 913.157H4103.08L3726.63 320.945H3554.69ZM3641.11 515.508L3717.56 635.876H3564.29L3641.11 515.508ZM4772.5 320.945V686.306L4340.15 320.945H4168.8V913.16H4352.62V547.804L4784.51 913.157H4956.3V320.945H4772.5Z" fill="#353642"/>
<path d="M1653.19 373.492C1614.96 338.624 1567.78 320.948 1512.97 320.948H1090.66C1037.49 320.948 990.671 338.59 951.312 373.563C913.517 408.652 893.834 451.811 892.824 502.096V732.474C892.824 782.334 912.365 825.445 951.037 860.714C990.2 895.512 1037.17 913.152 1090.66 913.152H1512.97C1568.11 913.152 1615.14 895.623 1652.64 861.142C1692.23 825.63 1711.96 782.281 1711.29 732.474L1711.28 502.339C1712.31 452.004 1692.72 408.618 1653.19 373.492ZM1519.45 706.115C1519.69 718.074 1515.1 728.262 1505.41 737.259C1495.77 745.535 1483.68 749.977 1468.45 750.827H1135.68C1121.33 749.971 1109.34 745.495 1099.06 737.154C1089.38 728.117 1084.67 717.878 1084.67 705.872V528.22C1084.67 515.547 1089.26 505.277 1098.7 496.822L1098.73 496.803C1109.14 487.436 1121.08 483.011 1135.33 483.267H1469C1483.26 482.976 1494.94 487.365 1504.68 496.592L1505.05 496.927C1514.74 505.372 1519.44 515.608 1519.44 528.217L1519.45 706.115Z" fill="#76777F"/>
<path d="M1997.09 750.822V320.945H1804.78V913.159H2412.58V750.824L1997.09 750.822ZM800.525 751.659H301.965L794.023 323.17L800.961 317.129V159.793H128.229L122.155 167.395L26.2199 287.502L0 320.337H510.805L16.4377 749.35L9.47037 755.395V911.949H820.745V751.659H800.525Z" fill="#353642"/>
</g>
<defs>
<clipPath id="clip0_57_173">
<rect width="4957" height="913" fill="white"/>
</clipPath>
</defs>
</svg>
